<?xml version="1.0" standalone="no"?>
<!DOCTYPE svg PUBLIC "-//W3C//DTD SVG 20010904//EN"
 "http://www.w3.org/TR/2001/REC-SVG-20010904/DTD/svg10.dtd">
<svg version="1.0" xmlns="http://www.w3.org/2000/svg"
 width="5209.000000pt" height="5210.000000pt" viewBox="0 0 5209.000000 5210.000000"
 preserveAspectRatio="xMidYMid meet">

<g transform="translate(0.000000,5210.000000) scale(0.100000,-0.100000)"
fill="#000000" stroke="none">
<path d="M30645 45108 c-662 -31 -1288 -310 -1765 -788 -784 -783 -1009 -1962
-569 -2975 286 -659 817 -1174 1484 -1439 327 -130 633 -187 999 -186 424 0
801 87 1180 274 1185 582 1775 1925 1401 3188 -132 445 -373 840 -711 1168
-216 209 -419 352 -689 485 -418 207 -852 296 -1330 273z m413 -104 c600 -66
1141 -324 1567 -749 389 -388 633 -862 732 -1420 24 -136 27 -174 27 -410 1
-293 -10 -387 -70 -635 -237 -970 -1027 -1726 -2009 -1925 -193 -39 -259 -46
-465 -50 -448 -8 -835 80 -1230 281 -555 281 -997 761 -1234 1339 -129 317
-188 627 -188 985 1 276 33 501 108 748 303 1000 1182 1726 2224 1837 152 16
385 15 538 -1z"/>
<path d="M30754 44142 c-6 -4 -75 -104 -154 -222 -513 -775 -834 -1391 -932
-1787 -25 -101 -29 -274 -9 -383 87 -459 437 -818 890 -910 122 -25 313 -27
429 -5 534 102 923 562 925 1095 0 122 -18 215 -74 384 -126 380 -435 961
-810 1526 -198 298 -225 329 -265 302z m-510 -1328 c9 -4 21 -15 27 -26 8 -15
-9 -58 -96 -231 -58 -117 -125 -266 -148 -332 -41 -118 -43 -120 -75 -123 -25
-3 -34 1 -42 20 -9 19 -4 43 25 127 83 239 249 563 292 571 1 0 9 -3 17 -6z
m-272 -971 c8 -10 22 -46 32 -81 34 -128 109 -247 219 -348 214 -195 508 -251
782 -149 108 41 121 42 135 15 19 -36 2 -60 -64 -90 -122 -54 -179 -65 -341
-65 -178 0 -232 13 -380 85 -218 107 -377 296 -446 532 -22 75 -22 78 -4 98
22 25 47 26 67 3z"/>
<path d="M26929 45021 c-316 -101 -412 -507 -176 -743 108 -108 265 -151 412
-113 214 56 359 278 324 498 -20 125 -105 255 -207 314 -105 62 -244 79 -353
44z m277 -112 c144 -69 224 -250 180 -403 -45 -155 -156 -245 -311 -254 -109
-5 -179 21 -252 94 -70 70 -95 127 -100 234 -4 70 -1 95 17 142 39 104 149
199 252 216 63 11 159 -2 214 -29z"/>
<path d="M8765 44594 c-497 -39 -871 -143 -1126 -314 -96 -64 -236 -212 -288
-303 -147 -260 -169 -485 -98 -1017 20 -151 75 -579 122 -950 135 -1070 232
-1837 280 -2215 25 -192 56 -442 70 -555 14 -113 28 -216 30 -230 2 -14 20
-155 40 -315 20 -159 95 -751 166 -1315 71 -564 154 -1221 185 -1460 126
-1005 215 -1707 219 -1735 3 -16 45 -354 95 -750 50 -396 93 -736 96 -755 3
-19 7 -51 10 -70 2 -19 23 -181 45 -360 34 -281 140 -1118 154 -1220 2 -19 36
-287 75 -595 39 -308 107 -843 151 -1190 43 -346 100 -791 124 -989 25 -197
48 -372 50 -390 3 -17 27 -211 55 -431 70 -560 139 -1104 145 -1141 2 -17 27
-213 55 -435 27 -222 77 -615 109 -874 33 -258 89 -702 125 -985 36 -283 86
-675 111 -871 102 -809 127 -1005 156 -1234 16 -132 31 -251 34 -265 2 -14 6
-47 9 -75 7 -54 144 -1144 176 -1395 11 -85 23 -175 25 -200 3 -25 10 -74 15
-110 6 -36 28 -213 50 -394 22 -180 43 -342 45 -360 3 -17 50 -389 105 -826
103 -821 187 -1479 195 -1540 3 -19 27 -213 54 -430 50 -394 215 -1704 291
-2298 22 -172 42 -334 45 -360 3 -26 10 -76 15 -112 5 -36 28 -213 50 -395 23
-181 43 -343 45 -360 3 -16 21 -156 40 -310 36 -282 62 -410 111 -533 151
-382 495 -707 884 -836 200 -66 225 -69 670 -76 347 -6 417 -9 490 -26 83 -19
242 -19 8175 -19 l8090 0 104 23 c488 108 811 451 886 942 21 137 19 195 -20
506 -19 153 -37 299 -40 324 -3 25 -10 77 -16 115 -5 39 -47 374 -94 745 -46
371 -112 891 -145 1155 -99 786 -414 3284 -425 3370 -3 28 -15 115 -25 195
-11 80 -40 309 -64 510 -25 201 -48 381 -50 400 -3 19 -64 501 -136 1070 -71
569 -155 1231 -185 1470 -30 239 -55 439 -55 446 0 6 46 39 103 72 688 401
1135 1177 1302 2262 47 305 59 479 60 867 l0 363 607 0 607 0 76 24 c314 100
459 452 308 751 -32 63 -152 182 -219 217 -114 61 -15 58 -1799 58 l-1630 0
-43 348 c-24 191 -45 361 -47 377 -3 17 -39 302 -80 635 -42 333 -78 619 -80
635 -3 17 -32 248 -65 515 -34 267 -63 499 -65 515 -4 25 -103 810 -119 946
-3 24 -15 114 -26 199 -11 85 -58 461 -105 835 -121 963 -136 1077 -141 1107
-5 31 -18 27 151 53 284 44 536 175 751 389 204 205 322 424 386 716 21 98 22
128 23 465 0 381 -4 431 -51 596 -68 245 -193 450 -387 635 -223 213 -488 336
-819 379 -30 4 -48 11 -48 19 0 27 -124 396 -186 555 -108 276 -237 554 -360
773 l-46 83 -48 381 c-27 209 -51 398 -54 420 -3 21 -58 453 -121 959 -64 506
-118 934 -120 950 -3 17 -9 68 -15 115 -27 220 -130 1041 -135 1071 -2 19 -22
178 -45 354 -48 387 -119 946 -159 1265 -17 129 -40 271 -51 315 -65 246 -191
466 -379 658 -213 219 -460 357 -766 430 l-90 21 -7680 7 c-4224 4 -7943 9
-8265 12 -322 2 -607 3 -635 1z m16680 -141 c179 -48 310 -106 450 -198 229
-150 415 -369 524 -619 58 -132 84 -245 115 -491 15 -115 29 -223 31 -240 3
-16 36 -282 75 -590 71 -569 165 -1317 175 -1390 10 -75 15 -110 155 -1225 77
-613 160 -1274 185 -1469 25 -194 45 -359 45 -365 0 -6 -10 5 -22 24 -236 380
-596 850 -880 1146 -37 40 -68 76 -68 80 0 5 -5 41 -11 79 -5 39 -39 304 -75
590 -36 286 -67 534 -69 550 -3 17 -48 374 -101 795 -103 826 -101 818 -174
909 -40 52 -124 107 -190 125 -50 15 -831 16 -8110 14 l-8055 -3 -45 -21
c-100 -47 -170 -156 -170 -267 0 -29 9 -119 19 -202 11 -82 22 -172 26 -200 3
-27 10 -79 15 -115 6 -36 30 -231 55 -435 25 -203 47 -381 50 -395 2 -14 6
-50 10 -80 3 -30 12 -104 20 -165 8 -60 42 -326 75 -590 108 -862 189 -1503
239 -1900 27 -214 52 -412 56 -440 5 -48 10 -80 20 -155 4 -33 83 -658 211
-1675 30 -242 57 -453 59 -470 4 -28 191 -1511 236 -1868 10 -87 21 -172 24
-190 3 -18 37 -284 75 -592 92 -735 198 -1574 260 -2065 28 -217 53 -415 56
-440 3 -25 11 -94 19 -155 8 -60 51 -396 95 -745 43 -349 107 -851 140 -1115
33 -264 78 -622 100 -795 63 -498 70 -555 76 -595 2 -16 33 -266 70 -555 36
-289 90 -716 119 -950 29 -234 56 -447 60 -475 3 -27 15 -115 25 -195 11 -80
40 -311 65 -514 25 -203 47 -381 49 -395 3 -14 8 -51 11 -81 4 -30 10 -82 15
-115 6 -45 3 -81 -11 -146 -24 -110 -47 -266 -57 -377 -13 -158 -6 -557 12
-692 43 -319 144 -627 285 -868 l42 -72 49 -388 c27 -213 51 -407 55 -432 3
-25 44 -349 90 -720 47 -371 119 -943 161 -1270 62 -493 108 -861 139 -1105 2
-22 11 -92 20 -155 8 -63 38 -297 65 -520 28 -223 53 -418 55 -435 2 -16 7
-52 10 -80 4 -27 8 -63 11 -80 2 -16 56 -444 119 -950 64 -506 122 -972 131
-1035 12 -96 119 -944 139 -1105 3 -27 12 -97 20 -155 8 -58 24 -181 35 -275
11 -93 27 -191 36 -216 35 -107 122 -198 229 -238 l56 -21 8062 0 8062 0 61
29 c106 50 164 143 164 261 0 46 -34 353 -55 492 -3 18 -38 301 -79 628 -41
327 -111 883 -156 1235 -44 352 -105 834 -135 1070 -112 891 -146 1161 -150
1185 -2 14 -7 52 -10 85 -3 33 -8 71 -11 85 -2 14 -58 457 -124 985 -66 528
-124 992 -130 1030 -12 90 -9 66 -80 635 -34 267 -63 499 -65 515 -4 23 -59
457 -120 946 -3 24 -23 184 -44 354 -75 591 -75 586 -62 595 7 4 45 10 86 13
169 15 424 77 608 149 42 17 79 29 81 27 2 -2 22 -155 45 -339 24 -184 67
-526 96 -760 30 -234 56 -447 60 -475 3 -27 10 -81 15 -120 6 -38 48 -376 95
-750 47 -374 106 -837 130 -1030 137 -1086 324 -2571 376 -2980 32 -258 61
-483 63 -500 3 -16 35 -267 71 -557 36 -290 67 -542 70 -560 47 -319 239
-1904 243 -1998 10 -311 -100 -589 -313 -789 -139 -129 -284 -206 -494 -259
-61 -15 -627 -17 -8116 -20 -5746 -2 -8078 0 -8147 8 -585 66 -1093 533 -1207
1110 -6 30 -146 1126 -311 2435 -283 2250 -374 2964 -385 3045 -3 19 -55 431
-115 915 -61 484 -160 1269 -220 1745 -60 476 -150 1189 -200 1585 -50 396
-106 844 -126 995 -30 234 -110 875 -128 1020 -3 25 -15 115 -26 200 -21 167
-123 975 -196 1555 -24 198 -46 370 -49 383 -2 13 -7 53 -10 90 -4 37 -8 74
-10 82 -2 8 -27 200 -55 425 -28 226 -53 424 -55 440 -3 17 -68 534 -145 1150
-77 616 -145 1152 -150 1190 -6 39 -33 252 -61 475 -27 223 -52 419 -54 435
-3 17 -27 212 -55 435 -28 223 -71 563 -95 755 -75 587 -115 908 -120 955 -3
25 -8 59 -10 75 -3 17 -36 282 -75 590 -96 764 -169 1342 -175 1385 -3 19 -70
555 -150 1190 -80 635 -179 1421 -220 1745 -41 325 -99 788 -130 1030 -30 242
-57 456 -60 475 -7 49 -135 1070 -200 1590 -30 239 -57 451 -59 470 -3 19 -21
161 -40 315 -20 154 -63 494 -96 755 -33 261 -76 603 -95 760 -37 297 -42 336
-50 385 -32 212 -1 449 84 631 140 298 395 496 726 564 87 18 353 18 8205 17
l8115 -2 80 -22z m180 -2397 c52 -24 112 -83 139 -135 15 -27 26 -88 41 -216
3 -27 8 -63 10 -80 4 -28 107 -840 210 -1666 25 -196 47 -372 50 -393 10 -69
14 -101 25 -191 6 -49 13 -103 15 -119 5 -26 -6 -18 -97 70 -1204 1162 -2647
1899 -4228 2158 -440 72 -771 99 -1235 99 -642 0 -1188 -66 -1810 -218 -1215
-297 -2319 -872 -3305 -1724 -171 -147 -624 -597 -767 -761 -671 -770 -1171
-1645 -1437 -2514 -25 -82 -47 -150 -49 -153 -2 -2 -49 -10 -103 -18 -314 -48
-574 -180 -800 -410 -150 -152 -255 -324 -324 -534 -66 -199 -72 -264 -67
-692 5 -405 6 -419 68 -603 181 -543 669 -915 1250 -952 l106 -7 23 -56 c44
-107 149 -317 220 -441 220 -382 437 -660 784 -1005 473 -471 970 -820 1636
-1150 887 -438 1938 -738 3070 -874 544 -65 867 -84 1445 -85 572 -1 723 5
1185 45 1508 131 2903 551 3967 1192 543 327 985 691 1381 1137 27 30 31 32
32 15 0 -11 16 -141 34 -290 19 -148 38 -292 41 -320 4 -27 8 -61 10 -75 2
-14 36 -281 75 -595 39 -313 73 -583 75 -600 3 -16 34 -264 70 -550 36 -286
87 -695 114 -910 28 -214 52 -410 55 -435 3 -25 13 -99 21 -165 8 -66 51 -403
95 -750 44 -346 107 -846 140 -1110 33 -264 85 -676 115 -915 30 -239 57 -451
60 -470 2 -19 34 -269 70 -555 36 -286 76 -608 90 -715 14 -107 25 -208 25
-223 l0 -29 -67 7 c-278 27 -522 112 -811 283 -245 146 -486 338 -761 607
-339 332 -602 644 -915 1083 l-116 164 0 211 c0 311 -23 498 -95 772 -220 843
-790 1552 -1565 1945 -357 181 -726 286 -1120 320 -98 8 -703 10 -2230 8
-2083 -4 -2096 -4 -2225 -25 -300 -49 -573 -129 -814 -237 -685 -306 -1247
-873 -1545 -1558 -124 -284 -187 -522 -242 -908 -17 -119 -11 -854 10 -1213
23 -402 76 -976 111 -1218 2 -19 14 -104 25 -189 56 -420 111 -718 416 -2249
19 -96 32 -177 28 -180 -3 -3 -198 -7 -432 -8 -550 -2 -888 20 -1308 87 -448
72 -769 165 -1074 312 -482 231 -739 528 -831 960 -30 139 -37 450 -15 626 48
377 190 740 428 1100 440 666 1232 1329 2155 1806 191 98 280 195 327 356 20
65 22 196 5 265 -56 234 -274 405 -514 405 -96 0 -170 -22 -318 -97 -531 -266
-1129 -670 -1592 -1078 -141 -124 -463 -449 -579 -585 -367 -430 -641 -888
-793 -1329 -20 -57 -38 -101 -40 -95 -1 5 -43 333 -93 729 -50 396 -97 772
-105 835 -9 63 -18 133 -20 155 -5 40 -123 973 -235 1860 -33 259 -95 756
-139 1105 -44 349 -134 1063 -200 1585 -66 523 -170 1346 -231 1830 -61 484
-126 1004 -146 1155 -19 151 -55 435 -79 631 -48 382 -48 383 -65 504 -6 44
-44 350 -86 680 -131 1050 -164 1315 -169 1348 -2 18 -6 48 -9 67 -6 38 -115
911 -122 975 -3 22 -7 54 -9 70 -3 17 -34 264 -70 551 -35 286 -67 536 -70
555 -3 19 -47 374 -100 789 -52 415 -108 863 -125 995 -40 317 -31 247 -111
875 -143 1134 -148 1177 -140 1211 16 70 47 111 106 142 27 15 752 16 8085 17
l8055 0 50 -24z m-4570 -581 c22 -2 96 -9 165 -15 360 -31 685 -82 1045 -165
2030 -469 3824 -1777 4890 -3565 477 -800 790 -1719 860 -2530 4 -41 9 -88 11
-105 2 -16 6 -149 8 -295 10 -715 -122 -1343 -413 -1964 -369 -787 -1040
-1514 -1893 -2050 -1221 -768 -2776 -1207 -4588 -1296 -211 -11 -954 -14
-1063 -5 -34 2 -120 7 -192 10 -611 26 -1389 134 -1990 276 -957 227 -1773
556 -2481 999 -401 251 -709 494 -1024 810 -752 752 -1187 1660 -1292 2695
-14 144 -18 711 -5 864 117 1398 831 2858 1962 4010 565 576 1144 1015 1860
1411 102 57 444 225 575 283 698 308 1452 512 2200 596 151 17 316 31 555 45
78 5 758 -3 810 -9z m-7895 -5371 c0 -3 -9 -40 -19 -82 -30 -116 -58 -251 -85
-412 -140 -826 -83 -1634 169 -2368 25 -73 45 -134 45 -137 0 -10 -97 -5 -185
10 -545 89 -959 484 -1077 1028 -21 95 -22 127 -22 462 -1 336 1 367 22 462
118 539 519 929 1057 1028 84 16 95 17 95 9z m14918 -14 c227 -39 482 -172
656 -343 113 -111 196 -227 267 -372 110 -226 129 -340 129 -776 0 -349 -8
-429 -62 -599 -120 -376 -416 -685 -789 -821 -114 -42 -231 -67 -343 -75 l-95
-7 56 164 c115 343 178 646 218 1049 14 136 14 781 0 880 -3 25 -13 106 -21
180 -18 161 -72 459 -112 623 l-29 117 31 -5 c17 -2 60 -10 94 -15z m-225
-3392 c21 -167 41 -321 43 -343 3 -22 14 -105 24 -185 11 -80 40 -311 65 -515
25 -203 47 -381 50 -395 2 -14 6 -45 9 -70 13 -108 153 -1219 225 -1795 133
-1053 162 -1279 166 -1310 6 -41 155 -1232 155 -1237 0 -3 -34 -22 -76 -42
-290 -144 -381 -513 -191 -779 78 -109 195 -183 330 -209 54 -10 69 -17 72
-33 3 -11 34 -256 70 -545 36 -289 87 -700 114 -915 28 -214 52 -412 56 -440
5 -48 10 -80 20 -155 3 -19 14 -108 25 -198 l21 -162 -32 -28 c-92 -78 -219
-150 -346 -195 -74 -27 -246 -62 -344 -70 l-57 -5 -6 56 c-4 32 -9 71 -11 87
-2 17 -25 194 -50 395 -25 201 -63 505 -85 675 -140 1102 -370 2928 -485 3845
-35 284 -67 531 -70 550 -2 19 -57 449 -120 955 -64 506 -118 934 -120 950 -3
17 -9 68 -15 115 -6 47 -37 299 -70 560 -33 261 -62 495 -65 520 -3 25 -8 60
-11 78 -5 30 4 45 84 150 199 262 365 537 497 823 31 65 60 130 65 144 5 14
13 25 17 25 5 0 25 -136 46 -302z m-4983 -4351 c734 -125 1344 -462 1804 -998
406 -473 642 -1033 706 -1674 8 -84 5 -850 -4 -905 -2 -14 -7 -97 -10 -185 -6
-143 -38 -609 -51 -725 -91 -845 -132 -1111 -325 -2085 -49 -247 -148 -749
-220 -1115 -242 -1230 -270 -1365 -306 -1494 -193 -699 -537 -1290 -1049
-1801 -909 -910 -2171 -1328 -3450 -1144 -627 90 -1258 348 -1780 727 -350
254 -701 611 -950 967 -234 334 -435 749 -554 1145 -39 128 -131 530 -131 571
0 10 3 19 8 20 4 0 14 2 22 3 8 2 60 6 115 10 191 14 417 45 481 66 36 12 87
37 114 55 27 19 51 30 54 27 2 -4 9 -25 16 -47 7 -22 32 -78 56 -125 162 -315
469 -525 831 -569 146 -18 1139 -14 1228 4 198 41 353 183 409 374 9 32 16 92
16 144 0 199 -104 372 -280 466 -110 59 -132 61 -722 61 -343 0 -539 4 -543
10 -3 5 -8 29 -10 52 -3 24 -9 87 -15 140 -5 54 -10 115 -10 138 l0 40 828 0
c690 0 839 3 897 15 260 55 439 288 422 550 -14 215 -153 397 -357 467 l-65
23 -940 0 -940 0 -100 -28 c-386 -107 -674 -396 -772 -774 -19 -71 -19 -71
-43 -57 -38 20 -139 52 -192 59 -28 3 -120 -2 -220 -15 -95 -11 -246 -26 -335
-33 -146 -12 -163 -11 -167 3 -3 8 -26 121 -51 250 -25 129 -97 496 -160 815
-177 899 -230 1217 -290 1760 -21 189 -31 297 -60 615 -32 355 -54 1045 -43
1370 11 363 69 651 195 975 362 933 1191 1629 2173 1824 252 50 185 49 2500
47 2024 -1 2172 -3 2270 -19z m6818 -2730 c2 -202 -12 -538 -28 -679 -18 -150
-20 -162 -40 -283 -75 -461 -250 -898 -459 -1149 -44 -52 -46 -51 -55 29 -4
28 -45 354 -92 725 -98 778 -194 1544 -194 1547 0 2 195 3 433 3 l432 0 3
-193z m-4129 -2191 c166 -179 400 -401 576 -548 677 -565 1362 -858 2006 -858
82 0 149 -3 149 -6 0 -8 59 -480 65 -514 2 -14 6 -45 9 -70 32 -260 370 -2945
392 -3110 2 -19 43 -339 89 -710 47 -371 119 -943 161 -1270 41 -327 97 -773
124 -990 28 -217 72 -570 99 -785 28 -214 52 -412 56 -440 6 -48 13 -103 20
-155 2 -14 54 -424 115 -912 98 -779 110 -892 100 -929 -16 -57 -81 -123 -136
-138 -30 -8 -2238 -10 -8075 -9 -7487 3 -8037 4 -8071 20 -53 24 -123 92 -148
143 -15 31 -28 100 -46 237 -43 340 -214 1695 -244 1938 -16 129 -32 253 -35
275 -3 22 -39 308 -80 635 -42 327 -112 881 -156 1230 -44 349 -104 829 -134
1065 -30 237 -76 608 -104 825 -27 217 -52 418 -56 445 -3 28 -8 64 -10 80 -3
17 -59 462 -125 990 -66 528 -122 976 -125 995 l-6 35 53 -60 c178 -203 330
-337 548 -483 585 -393 1443 -635 2495 -706 348 -23 711 -27 1143 -13 133 5
242 7 242 4 0 -23 68 -339 99 -458 269 -1041 942 -1941 1874 -2503 523 -316
1090 -505 1732 -578 170 -19 666 -16 850 6 824 97 1557 409 2205 940 135 110
467 449 584 596 363 456 623 972 771 1531 28 106 350 1713 604 3019 77 392
139 781 181 1130 12 96 23 184 25 195 2 11 4 35 4 53 1 17 5 32 9 32 5 0 82
-78 171 -174z"/>
<path d="M17162 43861 c-157 -54 -258 -185 -269 -349 -7 -98 9 -173 54 -264
93 -185 305 -311 498 -295 217 19 362 161 381 375 21 231 -160 474 -401 538
-72 20 -199 17 -263 -5z"/>
<path d="M18240 35735 c-8 -2 -49 -9 -90 -15 -354 -57 -700 -294 -912 -626
-120 -188 -202 -434 -228 -684 -12 -125 -12 -1121 1 -1260 34 -362 181 -715
392 -937 115 -121 250 -210 388 -257 165 -55 739 -136 1429 -201 54 -5 366
-30 505 -40 159 -11 592 -34 755 -40 96 -4 202 -8 235 -10 33 -2 333 -9 667
-16 474 -10 740 -10 1220 0 337 6 636 14 663 16 28 2 133 6 235 10 276 9 765
38 1030 60 783 66 1441 153 1649 217 440 136 758 632 801 1253 13 178 12 999
0 1164 -13 165 -30 252 -80 402 -159 480 -524 820 -1010 942 l-85 21 -3775 2
c-2076 1 -3782 0 -3790 -1z m1783 -1478 c287 -142 360 -553 139 -790 -111
-118 -248 -169 -391 -146 -376 60 -527 552 -258 837 99 104 196 144 338 139
88 -2 103 -6 172 -40z m4860 0 c85 -42 171 -126 212 -208 75 -147 74 -333 -2
-483 -31 -61 -121 -157 -177 -190 -258 -149 -571 -10 -660 293 -21 71 -21 211
0 282 48 160 157 277 309 332 38 13 73 17 146 14 88 -2 103 -6 172 -40z"/>
<path d="M20519 27346 c-2 -2 -42 -6 -89 -10 -491 -36 -984 -240 -1375 -569
-377 -317 -649 -738 -785 -1212 -34 -118 -65 -272 -75 -370 -4 -38 -9 -79 -12
-90 -11 -52 -3 -409 12 -520 143 -1066 920 -1899 1970 -2110 172 -35 242 -40
500 -40 250 1 346 12 563 65 932 228 1658 993 1831 1927 28 152 30 162 41 321
46 664 -206 1351 -678 1843 -462 483 -1066 749 -1733 764 -92 2 -168 3 -170 1z
m406 -112 c271 -36 488 -99 722 -209 723 -341 1223 -1017 1339 -1811 22 -147
25 -485 5 -624 -76 -556 -319 -1037 -710 -1413 -439 -420 -995 -650 -1601
-661 -796 -16 -1550 376 -1999 1039 -211 311 -339 649 -393 1040 -19 138 -16
476 6 620 135 899 749 1632 1605 1915 254 84 463 117 741 117 102 0 230 -6
285 -13z"/>
<path d="M20407 26249 c-94 -23 -198 -104 -242 -189 -38 -76 -45 -136 -45
-410 l0 -259 -297 -3 -298 -3 -53 -28 c-107 -56 -169 -134 -198 -248 -13 -50
-15 -107 -12 -308 l3 -246 31 -65 c39 -83 101 -145 184 -184 l65 -31 288 -3
287 -3 0 -263 c0 -291 8 -344 61 -428 40 -62 90 -105 159 -137 l55 -26 285 0
285 0 66 32 c79 39 140 102 177 181 l27 57 3 293 3 292 262 0 c297 0 347 7
434 65 68 45 118 113 144 196 19 61 20 87 17 325 l-3 259 -29 62 c-34 73 -113
153 -183 186 -45 21 -64 22 -345 25 l-298 3 0 273 c0 221 -3 283 -16 327 -33
109 -115 199 -224 245 -40 16 -76 19 -300 21 -140 1 -272 -2 -293 -8z"/>
<path d="M37035 42500 c-336 -41 -613 -121 -900 -259 -777 -374 -1337 -1092
-1505 -1931 -60 -299 -71 -580 -34 -895 13 -116 66 -350 110 -485 101 -313
237 -575 443 -845 98 -129 368 -399 498 -498 402 -305 855 -490 1353 -552 137
-17 477 -19 615 -4 631 70 1202 345 1650 794 436 436 699 971 787 1600 14 102
17 497 5 625 -47 477 -234 954 -532 1355 -433 583 -1069 964 -1805 1080 -120
20 -570 29 -685 15z m470 -90 c361 -26 661 -108 992 -271 801 -395 1348 -1164
1458 -2053 18 -144 20 -463 5 -612 -60 -570 -322 -1126 -730 -1548 -356 -368
-809 -626 -1305 -744 -210 -50 -360 -66 -610 -65 -240 0 -410 20 -615 69 -654
159 -1222 561 -1596 1129 -416 633 -540 1416 -340 2146 49 177 96 300 181 474
356 725 1034 1254 1825 1425 100 21 291 47 369 49 41 1 78 4 80 7 7 7 139 4
286 -6z"/>
<path d="M36945 41597 c-55 -22 -84 -48 -110 -100 -27 -55 -31 -91 -14 -150
11 -43 60 -103 91 -113 20 -6 20 -10 15 -407 -5 -383 -6 -407 -30 -517 -35
-157 -67 -256 -147 -445 -37 -88 -111 -261 -163 -385 -52 -124 -152 -360 -222
-525 -70 -164 -131 -322 -135 -350 -23 -142 57 -289 193 -351 l62 -29 785 -3
c819 -3 863 -1 943 39 136 70 211 256 160 399 -11 30 -70 172 -131 315 -460
1082 -485 1147 -521 1330 -32 162 -32 164 -38 545 l-6 366 40 26 c102 68 113
229 21 315 -54 51 -73 53 -430 52 -230 0 -342 -4 -363 -12z m711 -97 c26 -14
54 -61 54 -90 0 -34 -28 -78 -60 -95 -24 -12 -83 -15 -349 -15 l-319 0 -30 25
c-73 61 -51 165 38 184 54 11 643 3 666 -9z m-66 -635 c0 -362 9 -470 57 -665
34 -140 50 -183 277 -719 108 -255 195 -466 193 -468 -2 -2 -82 181 -177 406
-95 226 -176 414 -179 420 -4 6 -38 6 -96 -1 -77 -8 -707 -5 -784 4 -23 3 -34
-19 -214 -445 -105 -246 -192 -446 -194 -444 -2 2 87 217 198 478 223 526 270
648 304 794 46 197 53 284 54 683 l1 292 280 0 280 0 0 -335z m590 -1989 c28
-65 49 -121 47 -123 -2 -2 -25 47 -52 109 -55 130 -60 145 -52 138 3 -3 29
-59 57 -124z m-1761 -65 c-29 -66 -54 -120 -56 -118 -2 2 20 59 48 126 29 66
54 120 56 118 2 -2 -20 -59 -48 -126z m1867 -211 l4 -35 -10 35 c-5 20 -18 57
-29 84 -29 67 -25 72 6 6 14 -30 27 -71 29 -90z m-1941 35 c-29 -82 -13 -162
47 -230 70 -80 21 -76 928 -73 443 2 814 6 825 11 11 4 7 1 -10 -7 -26 -13
-147 -15 -830 -15 -758 -1 -802 0 -841 18 -118 53 -175 200 -123 314 18 39 20
28 4 -18z m1932 -166 c-17 -41 -62 -96 -91 -111 -11 -6 -2 7 21 29 43 40 72
93 74 135 2 22 2 22 6 2 2 -12 -2 -37 -10 -55z"/>
<path d="M41895 37069 c-961 -56 -1825 -616 -2270 -1472 -170 -327 -272 -669
-306 -1032 -11 -123 -7 -475 7 -567 l6 -38 -4133 0 c-4559 0 -4189 5 -4328
-62 -95 -46 -216 -169 -265 -268 -86 -177 -86 -359 0 -538 27 -57 56 -95 113
-151 88 -88 165 -133 277 -161 76 -20 128 -20 4438 -20 l4361 0 90 -118 c50
-64 149 -176 220 -248 419 -422 919 -679 1530 -785 155 -27 530 -37 697 -20
909 99 1688 612 2130 1406 161 288 278 643 324 985 21 151 23 496 5 645 -78
636 -352 1205 -791 1644 -551 551 -1327 846 -2105 800z m510 -114 c581 -78
1117 -344 1530 -759 145 -146 222 -239 331 -402 221 -332 366 -722 426 -1144
17 -125 17 -534 0 -660 -115 -818 -583 -1533 -1272 -1940 -323 -191 -638 -301
-1025 -357 -143 -20 -488 -23 -637 -5 -878 107 -1650 637 -2049 1407 -229 440
-327 899 -298 1396 48 824 492 1586 1194 2052 132 88 385 215 539 272 208 77
468 135 693 155 135 12 424 5 568 -15z m-3055 -3102 c0 -10 11 -67 25 -128 64
-283 185 -583 330 -823 l26 -42 -4359 2 -4359 3 -85 42 c-183 91 -288 256
-288 453 1 94 13 148 53 230 64 130 217 245 358 269 31 5 1783 9 4177 10 3919
1 4122 0 4122 -16z"/>
<path d="M42570 35724 c-136 -27 -266 -81 -355 -149 -95 -73 -1418 -1289
-1461 -1344 -55 -69 -118 -194 -141 -281 -25 -90 -25 -300 0 -390 62 -231 244
-440 459 -525 237 -94 503 -69 716 67 80 51 1455 1311 1509 1382 188 250 208
592 51 861 -25 42 -77 106 -132 160 -76 76 -106 98 -186 137 -52 26 -124 54
-160 63 -64 17 -252 28 -300 19z m525 -436 c104 -119 150 -324 110 -483 -31
-123 -69 -181 -202 -311 -68 -67 -132 -124 -143 -127 -25 -6 -60 19 -60 44 0
12 31 48 78 92 130 120 161 157 200 235 34 69 37 84 40 176 5 141 -15 198
-122 351 -7 9 -6 23 2 39 18 40 53 34 97 -16z m-1079 -963 c231 -253 425 -468
432 -477 11 -14 -28 -53 -314 -314 -407 -372 -427 -387 -584 -435 -95 -29
-253 -31 -350 -6 -116 30 -226 93 -310 177 -85 85 -129 155 -168 262 -34 95
-42 276 -18 381 19 83 73 193 128 261 22 28 191 189 376 358 l337 307 26 -27
c15 -15 215 -234 445 -487z"/>
<path d="M37860 32203 c-80 -11 -156 -28 -236 -54 l-90 -29 -3850 -2 -3849 -3
-78 -28 c-189 -67 -320 -198 -383 -382 -106 -317 66 -652 391 -763 l80 -27
3340 -3 c1837 -1 3396 -2 3464 -2 l124 0 -6 -177 c-5 -147 -12 -208 -42 -353
-41 -204 -45 -285 -15 -323 28 -36 91 -56 186 -61 44 -2 90 -8 101 -15 24 -12
28 -29 87 -332 19 -97 43 -194 54 -216 32 -62 102 -119 169 -139 51 -15 67
-15 132 -5 41 7 80 15 86 18 16 5 28 -85 20 -142 -15 -104 -19 -125 -43 -195
-51 -154 -160 -344 -294 -512 -59 -75 -76 -89 -111 -98 -113 -29 -277 -92
-420 -162 -189 -93 -259 -133 -440 -251 -117 -76 -140 -88 -151 -76 -7 8 -127
165 -267 349 -140 184 -281 363 -315 397 -72 73 -114 88 -214 78 -89 -9 -688
-109 -776 -130 -94 -21 -119 -47 -118 -118 1 -87 28 -124 272 -369 160 -161
220 -228 206 -228 -87 0 -238 -206 -311 -425 -23 -69 -27 -97 -28 -205 0 -122
1 -127 33 -193 23 -47 49 -81 89 -114 120 -103 140 -124 168 -174 20 -37 29
-71 33 -118 4 -59 -4 -98 -71 -351 -211 -801 -258 -1029 -263 -1290 -4 -202 6
-271 66 -451 149 -450 332 -535 797 -371 235 83 416 240 492 427 24 61 25 52
6 -105 -36 -287 -104 -640 -246 -1279 -64 -283 -89 -413 -85 -437 8 -41 57
-84 97 -84 16 0 61 9 101 20 76 20 157 34 267 45 l64 7 -7 -59 c-22 -198 -168
-1102 -242 -1503 -100 -545 -126 -647 -329 -1290 -248 -786 -367 -1188 -494
-1670 -280 -1060 -429 -1916 -481 -2755 -9 -133 -5 -1320 4 -1455 3 -41 8
-149 11 -240 12 -336 51 -1061 80 -1465 3 -38 10 -140 15 -225 6 -85 13 -175
15 -200 2 -25 7 -88 10 -140 3 -52 10 -151 16 -220 5 -69 12 -154 14 -190 12
-156 46 -580 60 -745 9 -99 18 -207 21 -240 8 -95 94 -1055 99 -1105 3 -25 12
-119 20 -210 9 -91 18 -183 20 -205 2 -22 9 -92 15 -155 7 -70 18 -129 29
-150 21 -41 69 -72 126 -80 l40 -5 -85 -40 c-332 -154 -907 -452 -1104 -572
-238 -145 -391 -325 -440 -518 -34 -136 18 -251 139 -306 38 -18 109 -19 1500
-19 l1460 0 50 24 c65 30 131 104 150 169 18 60 20 234 4 375 -27 250 -126
617 -233 873 -6 13 1 17 38 21 24 3 58 15 75 27 57 41 65 71 76 296 3 66 8
147 10 180 3 33 14 218 25 410 21 357 26 458 35 600 3 44 7 114 10 155 2 41 7
111 10 155 3 44 21 323 40 620 19 297 37 574 40 615 3 41 14 203 25 360 11
157 22 314 25 350 7 92 24 321 30 415 3 44 8 100 10 125 3 25 14 158 25 295
26 318 51 578 71 740 57 462 213 1376 409 2391 191 988 313 1542 396 1794 l47
145 34 -255 c18 -140 53 -376 78 -525 62 -378 128 -789 170 -1065 19 -129 42
-275 50 -325 8 -49 53 -342 100 -650 47 -308 94 -614 105 -680 11 -66 38 -237
60 -380 132 -839 245 -1491 394 -2280 96 -510 172 -1105 226 -1775 34 -421 68
-1122 71 -1448 1 -168 9 -204 55 -250 19 -19 33 -36 32 -38 -2 -1 -62 -31
-133 -64 -491 -233 -1013 -510 -1164 -617 -179 -127 -302 -289 -347 -456 -18
-68 -18 -103 3 -162 21 -63 93 -136 149 -153 32 -9 379 -12 1495 -12 l1454 0
50 24 c62 29 107 76 137 141 21 46 23 63 22 215 0 91 -6 199 -13 240 -23 138
-52 284 -72 360 -45 169 -141 440 -170 481 l-19 27 50 32 c52 34 106 92 133
145 25 50 35 101 56 290 12 99 23 198 26 220 7 60 35 304 40 350 5 46 33 290
40 350 42 356 130 1166 139 1285 16 190 36 551 48 820 20 483 15 2803 -7 3155
-2 33 -6 161 -10 285 -3 124 -8 250 -10 280 -2 30 -7 125 -10 210 -11 291 -37
690 -60 925 -42 421 -121 1163 -130 1215 -2 14 -9 75 -15 135 -6 61 -20 187
-31 280 -11 94 -22 193 -25 220 -2 28 -7 64 -9 80 -3 17 -14 111 -25 210 -11
99 -31 279 -45 400 -14 121 -32 276 -40 345 -14 120 -90 772 -100 855 -3 22
-23 193 -45 380 -22 187 -44 376 -50 420 -17 141 -39 328 -46 385 -3 30 -12
105 -20 165 -8 61 -14 124 -14 141 l0 31 83 -13 c216 -34 450 -55 483 -44 44
15 74 54 74 98 0 44 -74 436 -146 777 -31 143 -68 321 -84 395 -28 135 -68
397 -72 478 l-3 43 65 27 c186 80 398 290 491 487 65 140 113 355 141 635 25
258 13 1213 -17 1366 -4 17 14 31 105 83 150 85 154 91 146 212 -8 128 -39
305 -81 464 -120 461 -366 855 -715 1147 -287 241 -640 420 -1034 523 -177 47
-300 65 -496 72 -189 7 -200 10 -369 124 -222 148 -413 395 -495 639 -49 147
-59 271 -56 717 l0 91 44 26 c61 36 134 119 169 195 27 56 31 79 35 173 l5
108 141 1 c77 0 175 3 216 5 216 16 409 142 500 328 53 107 70 188 66 301 -11
249 -167 455 -411 542 l-80 28 -545 5 -545 5 -45 28 c-25 15 -63 32 -84 38
-41 11 -153 18 -196 12z m-630 -210 c-113 -44 -285 -82 -413 -92 -131 -11
-204 -31 -290 -80 -131 -75 -237 -210 -283 -357 -48 -153 -20 -281 85 -396
l53 -58 -3243 0 c-2825 0 -3252 2 -3307 15 -184 43 -329 184 -377 366 -30 113
-13 259 43 363 34 66 143 174 208 208 114 61 -181 57 3874 57 l3715 0 -65 -26z
m2063 12 c87 -22 155 -61 223 -127 103 -98 154 -219 154 -364 0 -218 -131
-400 -346 -479 -40 -15 -90 -19 -281 -23 l-231 -4 -6 29 c-19 83 -120 163
-210 166 l-45 2 7 45 c4 25 7 106 7 180 -1 126 -3 141 -34 230 -39 116 -97
222 -163 301 l-49 59 459 0 c373 0 468 -3 515 -15z m-1589 -826 c64 -18 88
-51 135 -189 134 -393 266 -488 396 -286 18 28 54 101 80 161 66 151 101 198
171 224 145 55 229 -8 254 -189 24 -174 -27 -297 -160 -388 -88 -60 -90 -68
-90 -342 0 -266 16 -430 55 -565 93 -319 349 -628 661 -796 l94 -51 -62 -47
c-405 -306 -893 -519 -1283 -559 -118 -12 -363 -6 -468 12 -90 15 -317 81
-317 92 0 2 36 48 81 102 204 247 342 514 380 735 6 38 9 109 7 158 l-4 88 90
36 c94 37 279 131 328 167 34 23 37 61 7 82 -24 16 -37 13 -90 -20 -198 -123
-505 -234 -615 -221 -53 6 -105 43 -128 91 -9 20 -39 146 -65 281 -27 135 -56
256 -64 269 -26 39 -84 59 -189 67 -56 3 -105 12 -114 19 -19 16 -15 48 27
259 33 163 53 386 43 478 l-6 62 118 59 c152 76 375 164 495 196 103 27 173
32 233 15z m-2699 -3456 c154 -100 388 -456 574 -874 141 -317 163 -392 186
-634 9 -93 18 -186 21 -205 60 -507 76 -826 54 -1112 -14 -184 -31 -252 -87
-347 -54 -90 -174 -200 -274 -250 -106 -53 -282 -110 -384 -123 -120 -15 -181
4 -255 80 -85 87 -164 267 -205 467 -18 88 -24 268 -12 384 21 195 100 545
259 1146 80 304 82 316 69 398 -20 121 -80 215 -186 293 -105 77 -139 144
-138 274 0 41 8 104 17 140 38 150 168 367 236 393 26 10 84 -4 125 -30z
m1443 -15 c84 -40 184 -135 287 -274 233 -313 488 -554 690 -653 165 -81 1205
-465 1994 -737 573 -198 1000 -324 1094 -324 60 0 185 65 637 328 118 69 244
143 279 164 35 22 65 38 67 36 2 -2 6 -62 9 -133 3 -72 8 -146 10 -166 10 -74
6 -770 -5 -909 -21 -272 -67 -512 -121 -636 -53 -119 -189 -292 -291 -369 -83
-63 -205 -121 -298 -142 -224 -50 -643 5 -940 124 -844 336 -2119 1354 -2732
2179 -113 153 -173 169 -420 115 -205 -46 -284 -54 -447 -48 -155 6 -246 24
-352 71 -51 22 -57 28 -64 63 -19 103 -127 380 -244 627 -35 73 -57 132 -52
135 5 4 25 6 43 5 257 -12 446 -14 523 -4 189 23 298 113 297 244 0 64 -22
120 -84 217 -26 42 -48 85 -48 97 0 40 72 36 168 -10z m102 -4898 c277 -10
636 -27 755 -35 39 -2 117 -7 175 -10 58 -3 128 -8 155 -10 28 -3 142 -11 255
-20 1160 -88 2053 -248 2434 -436 133 -66 123 -50 146 -239 11 -91 22 -181 25
-200 3 -27 60 -507 100 -845 3 -22 11 -96 20 -165 8 -69 24 -204 35 -300 11
-96 23 -193 25 -215 25 -199 192 -1657 255 -2220 114 -1022 160 -1483 175
-1745 21 -367 24 -438 35 -725 5 -143 12 -321 15 -395 25 -629 38 -2172 24
-2760 -13 -540 -28 -887 -54 -1240 -14 -174 -94 -951 -124 -1190 -6 -41 -13
-102 -16 -135 -3 -33 -8 -76 -10 -95 -3 -19 -21 -172 -40 -340 -81 -717 -84
-738 -109 -788 -31 -60 -78 -105 -137 -131 -44 -20 -66 -21 -674 -21 -593 -1
-629 0 -646 17 -15 16 -18 52 -24 313 -3 162 -8 302 -10 310 -2 8 -6 103 -10
210 -3 107 -8 206 -10 220 -2 14 -7 86 -10 160 -3 74 -8 146 -10 160 -2 14 -7
70 -10 125 -5 91 -17 238 -30 370 -64 668 -123 1112 -206 1545 -187 979 -311
1724 -629 3795 -83 539 -178 1140 -210 1335 -82 493 -122 778 -170 1205 -11
99 -22 196 -25 215 -2 19 -16 154 -30 300 -29 298 -47 395 -99 528 -106 276
-323 516 -586 647 -95 48 -392 156 -412 149 -27 -8 -41 -40 -28 -63 10 -19 33
-30 220 -98 126 -46 200 -82 292 -142 161 -105 300 -265 388 -445 74 -151 95
-246 130 -590 17 -165 33 -322 35 -350 3 -28 8 -65 10 -82 4 -21 -18 -99 -71
-255 -76 -224 -130 -431 -205 -779 -222 -1029 -509 -2584 -624 -3385 -50 -352
-159 -1668 -220 -2670 -3 -49 -8 -110 -10 -135 -2 -25 -7 -94 -10 -155 -3 -60
-8 -135 -10 -165 -2 -30 -7 -98 -10 -150 -3 -52 -8 -124 -10 -160 -3 -36 -9
-139 -15 -230 -5 -91 -12 -201 -15 -245 -3 -44 -7 -127 -10 -185 -4 -58 -8
-123 -10 -145 -2 -22 -18 -287 -35 -590 -28 -477 -34 -552 -49 -568 -16 -17
-60 -18 -791 -17 -664 0 -777 2 -789 15 -11 10 -21 82 -38 252 -48 497 -124
1334 -158 1743 -19 234 -37 450 -40 480 -7 84 -43 559 -60 800 -8 118 -17 242
-20 275 -3 33 -10 132 -15 220 -6 88 -12 194 -15 235 -3 41 -12 192 -20 335
-25 441 -23 401 -40 775 -5 119 -12 290 -21 532 -10 281 -7 1123 5 1308 11
163 35 449 46 530 2 19 9 73 15 120 77 614 227 1338 440 2135 119 443 236 838
455 1530 145 459 178 569 214 713 34 135 118 549 156 765 14 81 36 211 50 290
23 132 95 591 129 822 9 55 25 166 38 248 l22 147 45 0 c25 0 165 -5 311 -10z
m-119 -14376 c37 -19 70 -86 133 -276 92 -274 135 -497 145 -735 3 -89 2 -180
-2 -203 -11 -53 -71 -115 -125 -130 -28 -7 -484 -9 -1470 -8 -1427 3 -1431 3
-1458 24 -54 40 -69 70 -69 138 0 54 7 76 44 152 36 72 61 105 135 180 125
125 219 184 645 408 l184 97 212 -210 c116 -116 214 -211 217 -211 4 0 18 4
32 10 20 7 26 17 26 39 0 24 -30 58 -195 219 -107 105 -195 193 -195 197 0 3
42 26 93 50 l92 45 195 -194 c107 -106 202 -196 211 -199 9 -3 26 1 38 9 45
32 30 53 -165 243 -103 100 -185 184 -182 186 6 7 329 156 368 171 27 10 153
13 548 13 448 1 517 -1 543 -15z m4200 -1 c36 -22 63 -77 123 -251 105 -305
156 -580 153 -823 -2 -150 -3 -157 -29 -196 -14 -22 -43 -48 -65 -59 -37 -18
-82 -19 -1485 -19 l-1447 0 -28 21 c-99 74 -95 188 13 356 109 170 261 274
844 576 l175 91 216 -214 c174 -174 220 -215 242 -215 38 0 56 39 34 73 -8 13
-101 107 -206 208 -105 101 -191 186 -191 190 0 6 172 89 186 89 5 0 99 -90
209 -200 138 -137 208 -200 223 -200 12 0 29 11 38 25 15 23 15 27 1 48 -9 13
-97 102 -196 197 -100 96 -178 177 -174 180 12 10 253 122 282 131 14 4 257 8
539 8 471 1 516 0 543 -16z"/>
<path d="M44310 29642 l-23 -19 41 -144 c285 -1004 452 -2293 452 -3499 0
-1344 -201 -2677 -583 -3875 -38 -119 -43 -143 -32 -160 15 -24 57 -31 72 -13
23 27 173 538 253 856 341 1364 454 2769 344 4277 -46 633 -164 1416 -305
2019 -62 266 -140 537 -161 558 -23 23 -30 23 -58 0z"/>
<path d="M43670 28950 c-9 -16 -4 -50 19 -153 151 -666 245 -1367 281 -2097
10 -203 14 -999 5 -1115 -2 -33 -7 -116 -10 -185 -36 -772 -167 -1682 -362
-2514 l-47 -199 23 -18 c55 -45 69 -19 129 246 188 830 314 1688 347 2380 4
72 9 141 11 155 3 14 7 219 11 455 13 947 -63 1785 -242 2665 -62 305 -81 381
-97 391 -23 15 -57 10 -68 -11z"/>
<path d="M7653 23116 c-219 -71 -322 -309 -221 -510 100 -197 364 -258 540
-123 59 46 95 94 119 162 64 183 -19 378 -197 457 -61 27 -180 34 -241 14z
m212 -110 c133 -62 191 -226 126 -354 -106 -208 -407 -189 -488 31 -20 55 -15
136 11 192 63 136 218 194 351 131z"/>
<path d="M7603 21549 c-12 -4 -24 -16 -27 -26 -3 -10 17 -129 44 -263 346
-1686 802 -3033 1367 -4040 143 -254 350 -575 484 -752 65 -84 94 -98 123 -56
18 26 16 31 -74 153 -103 138 -286 421 -390 600 -588 1017 -1042 2324 -1395
4015 -36 173 -67 325 -70 337 -7 29 -34 43 -62 32z"/>
<path d="M43473 20448 c-32 -41 -183 -331 -183 -352 0 -29 31 -50 59 -41 15 4
178 282 203 346 15 39 -53 80 -79 47z"/>
<path d="M42665 20210 c-36 -40 -17 -59 163 -158 93 -50 178 -92 190 -92 28 0
51 44 36 68 -11 17 -340 202 -360 202 -6 0 -19 -9 -29 -20z"/>
<path d="M43399 19811 c-17 -13 -20 -24 -16 -43 6 -21 39 -43 174 -117 91 -50
177 -91 189 -91 27 0 48 32 39 60 -5 16 -288 182 -347 203 -10 3 -27 -2 -39
-12z"/>
<path d="M43071 19716 c-6 -7 -51 -86 -100 -175 -91 -166 -98 -191 -59 -212
39 -21 49 -9 167 207 72 131 81 160 59 182 -16 16 -53 15 -67 -2z"/>
<path d="M32215 9854 c-773 -313 -1753 -610 -2595 -789 -1038 -220 -2015 -325
-3018 -325 -224 0 -360 -4 -373 -10 -24 -13 -25 -53 -2 -76 16 -16 51 -16 468
-11 247 3 529 11 625 17 1424 85 2741 343 4120 809 374 126 914 328 948 354
15 12 16 49 0 65 -20 20 -57 12 -173 -34z"/>
<path d="M33155 9274 c-1365 -648 -3000 -1096 -4680 -1283 -231 -26 -390 -41
-700 -66 -33 -3 -150 -10 -260 -15 -110 -6 -240 -13 -290 -15 -169 -10 -950
-5 -1169 6 l-220 11 -18 -22 c-16 -20 -17 -26 -5 -44 27 -40 99 -45 767 -50
537 -5 871 6 1270 39 30 3 89 7 130 10 180 14 614 59 765 80 17 3 68 9 115 15
392 50 1009 162 1457 264 1006 230 2061 592 2921 1001 117 56 144 73 149 93 4
19 0 30 -17 44 -12 10 -25 18 -29 18 -3 -1 -87 -39 -186 -86z"/>
<path d="M23416 8974 c-19 -19 -20 -35 -3 -57 40 -54 976 -186 1502 -212 66
-3 145 -8 175 -10 30 -2 148 -7 261 -11 l207 -7 17 26 c20 31 7 64 -28 71 -12
3 -132 8 -267 11 -135 4 -261 8 -280 10 -19 2 -87 6 -150 10 -63 3 -124 8
-135 10 -11 2 -60 7 -110 10 -267 18 -804 92 -1050 146 -108 23 -119 23 -139
3z"/>
</g>
</svg>
