<svg xmlns="http://www.w3.org/2000/svg" viewBox="0 0 400 400" height="400" width="400"><g fill="#000000"><path d="M230.96 285.78c9.74 1.7 14.84 2.28 13.8 -8.62a131.4 131.4 0 0 0 -3.74 -19.44 14.18 14.18 0 0 0 6 -10.4c0.8 -7.16 -3.08 -13.48 -8.7 -14.12s-10.82 4.66 -11.62 11.82a14.8 14.8 0 0 0 2.44 10.26c-2.56 4.56 -7.34 13.78 -8.8 21.32s0.88 7.5 10.62 9.18zM84 132a1.44 1.44 0 0 0 0.26 -1.54c-0.32 -1.26 -0.54 -2.52 -0.82 -3.88a0.54 0.54 0 0 0 -1.06 0.14c0.38 3.84 0.98 4 0.68 4.5a3.3 3.3 0 0 1 -2.3 0.64 0.54 0.54 0 0 0 0 1.08A4.38 4.38 0 0 0 84 132zm-5.2 -7.42c-1.12 -0.16 -1.76 2.24 -1.02 3.2a0.82 0.82 0 0 0 0.62 0.34c1.36 0 1.74 -3.38 0.4 -3.54zm7.32 5.18c1.4 0.2 1.9 -3.36 0.5 -3.54s-1.88 3.34 -0.5 3.54zm-5.92 8.48c-3.72 -0.54 -4.46 -3.26 -5.12 -3.7a0.62 0.62 0 0 0 -0.84 0.16 5.72 5.72 0 0 0 1.56 8.48 0.56 0.56 0 0 0 0.72 -0.22 0.54 0.54 0 0 0 -0.2 -0.72 4.74 4.74 0 0 1 -1.54 -6 5.86 5.86 0 0 0 5.42 2.88 0.46 0.46 0 0 0 0 -0.88zm-1.22 -16.86c2.32 -0.24 2.64 -1.74 1.68 -2.38 -3.24 -1.92 -6.8 2.88 -1.68 2.38zm8.38 1.46c3.44 1.38 3.02 -2.74 0.18 -2.8 -1.22 0 -1.44 0.6 -1.48 0.86a2 2 0 0 0 1.3 1.94z" stroke-width="2"></path><path d="M380.32 18.84c-6.82 -7.4 -20.8 -7.86 -40.14 -8.52 -26.98 -0.9 -70.46 -1.06 -111.64 1.22 -50 3.28 -53.76 4.86 -58.18 24.1 -2.5 11.04 -4 19.18 -6.36 33.78 -9.12 54.18 -15.08 92.56 -20.4 140l-12 -3.64c-3.66 -25.16 -16 -43.4 -34.5 -51.34 -0.18 -1.76 -0.96 -5.6 -4 -7.22 -2.72 -1.42 -4.64 -1.24 -8 3.7 -0.72 -0.14 -1.44 -0.24 -2.14 -0.34v-1.38c5.76 -3.02 7.42 -11.28 5.6 -14.46a26.22 26.22 0 0 0 1.08 -2.42c6 -3.3 8 -11.76 2.42 -13.88a11.42 11.42 0 0 0 1.1 -10.62c-3.88 -10.76 -17.02 -6.6 -22.68 -7.42a6.22 6.22 0 0 1 -5.54 -5.12 0.5 0.5 0 0 0 -0.7 0c-4.42 3.16 -3.2 8.94 1.16 11.78a11.02 11.02 0 0 1 -3.2 -1.54 0.46 0.46 0 0 0 -0.56 0.32 5.2 5.2 0 0 0 2.7 6 4.94 4.94 0 0 1 -4.22 -1.84 0.52 0.52 0 0 0 -0.64 0.34c-1 3.42 0.84 6.94 6.34 7.66a11.8 11.8 0 0 0 -0.22 8 3.22 3.22 0 0 0 -1.88 4.78 4.7 4.7 0 0 0 2.78 2.84 16 16 0 0 0 0 7.58 39.16 39.16 0 0 0 -1.28 4.58 9.26 9.26 0 0 0 -14.84 5.58 42.38 42.38 0 0 0 -34 32.78A77.08 77.08 0 0 0 14.8 204c0.44 8.8 3.12 20.18 13.34 24.8a7.36 7.36 0 0 0 0.12 10.86c-14.12 23.82 -3.12 64.96 -8.72 107.62 -1.36 0.7 -2 2.2 -1.76 4.48a3.68 3.68 0 0 0 1.36 2.16c-0.62 5.08 -0.68 5.86 -0.86 6.46a12.5 12.5 0 0 0 -2 5.08c0 1.36 11.04 11.08 16.58 9.78a1.84 1.84 0 0 0 1.46 -1.28c0.66 -2.36 -3.5 -7.26 -7.18 -11.02 0.4 -0.64 2.9 -4.44 3.68 -5.74 1.22 -0.2 2.38 -0.76 2.88 -3.18a7.1 7.1 0 0 0 0 -2.68c2.2 -3.34 18.96 -29.04 29.48 -54.6 5.7 -13.84 9.08 -14.78 11.4 -14 5.04 1.62 8.94 10 10.3 14.2a79.78 79.78 0 0 1 2.68 34c-2.78 0.76 -3.08 5.16 -1.4 7.12 -0.76 2.84 -1.66 5.68 -2.7 8.44a11.44 11.44 0 0 0 -2.46 4.2 0.4 0.4 0 0 0 0 0.22c4 6.98 9.08 11 11.86 11.22a2 2 0 0 0 1.72 -0.6c1.84 -2.18 -2 -8.32 -3.72 -11a71.62 71.62 0 0 0 8 -6.66 5.36 5.36 0 0 0 5.5 -6c29.28 -26.3 22.86 -60.1 0.74 -93.04a7.12 7.12 0 0 0 3.12 -5.58A39.42 39.42 0 0 0 106 224a33.1 33.1 0 0 0 2.86 -2.7c8.24 6.78 20.5 8.56 32.94 4.78 -8.16 75.36 -10.12 110.18 -10.2 111.64 -1.76 26.28 2.62 30.7 12.32 34 24.14 8 148.32 17.1 162.42 18 30.16 2.14 33.02 -4.34 37.5 -22.3 4.86 -19.42 18.66 -131.46 22.68 -155.42 4.24 -25.16 17.56 -149 18.76 -174.34 0.36 -8.7 -1.28 -14.74 -4.96 -18.82zM89.66 350.38a1.08 1.08 0 0 1 -1.12 0.66c-1.3 0 -3.12 -1.54 -4 -4.26a41.66 41.66 0 0 0 2.58 -7.82 20.34 20.34 0 0 0 10.38 4.7c-7 6.18 -8 5.92 -7.84 6.72zm8.76 -7.84c-3.58 -0.24 -9.3 -2.66 -11.32 -5.44 -1.12 -1.56 -0.94 -4.6 0.78 -5.2 2.34 2.5 8.14 5.42 15.6 6.12a4.12 4.12 0 0 1 -1.04 3.08 4.7 4.7 0 0 1 -4.02 1.44zm-72.3 20.76a1.28 1.28 0 0 1 -1.12 1.06c-1.54 0.28 -4 -0.98 -5.64 -3.86a22.7 22.7 0 0 0 0.82 -6 18.98 18.98 0 0 0 9.28 2.62c-1.16 1.54 -3.68 5.12 -3.34 6.18zm-1 -8c-2.76 -0.68 -6 -2 -6.26 -3.78s0.2 -3.06 1.16 -3.48a25.6 25.6 0 0 0 12.86 3.96 5.58 5.58 0 0 1 0 1.82c-0.74 3.22 -4.24 2.42 -7.76 1.56zm41.22 -244a4.72 4.72 0 0 1 -4 -4.5 6.5 6.5 0 0 0 5.02 1.14c0.38 -0.12 0.6 -0.32 0.58 -0.58s0 -0.32 -0.38 -0.42c-4.42 -1.58 -6.9 -7.12 -3.44 -10.48A6.58 6.58 0 0 0 70 101.42c4 0.64 8.92 -0.7 14.12 0.46A9.86 9.86 0 0 1 92 108.3a11.08 11.08 0 0 1 -0.82 9.34c-5.62 -10.96 -14.3 1.66 -26.16 -0.98C61.76 116 60 114 60.3 111.46a6.32 6.32 0 0 0 6 0.76c0.62 -0.22 0.5 -0.8 0.04 -0.94zm11.4 50.12a0.48 0.48 0 0 0 0.4 0.86c8 -3.4 13.46 -10.56 13 -14.6 3.68 0.96 4.64 4.92 4.88 6.74 -2.72 4.92 -8.9 7.7 -14.38 9.04a0.46 0.46 0 0 0 0.22 0.9c6 -1.3 11.7 -3.18 14.78 -8.74 11.78 5.18 21.2 14.84 27.26 28 -1.72 1.26 -5.44 3.48 -7.32 4.56a32 32 0 0 0 -5.84 -11.04c2.34 0.18 7.1 0.48 7.1 0.48a0.3 0.3 0 0 0 0.28 -0.44c-0.38 -0.76 -6.64 -8.96 -7.26 -9.54a0.28 0.28 0 0 0 -0.42 0c-1.76 1.84 -2.96 3.42 -4.32 4.98a27.16 27.16 0 0 0 -27.62 -3.5 4.64 4.64 0 0 0 -3.2 -3.22c-6.14 -1.62 -9.88 5.64 -5.4 8.8a34.2 34.2 0 0 0 -10.46 19.78c-2.68 -1.1 -7.04 -2.82 -7.38 -2.94s-0.62 0 -0.62 0.2c0 4.34 0 5.84 0.32 10.66a0.3 0.3 0 0 0 0.48 0.22c2 -1.32 4.36 -2.96 6.84 -4.78a33.5 33.5 0 0 0 0.7 9.26A104.72 104.72 0 0 0 46 204c2.46 -9.18 3.68 -26.56 -1.42 -35.58a0.54 0.54 0 0 0 -0.96 0.5c3.72 7.78 3.32 21.82 1.82 31.66a19.26 19.26 0 0 0 -2.36 -0.8 69.7 69.7 0 0 0 -2.5 -8 0.3 0.3 0 0 0 -0.48 0 69.72 69.72 0 0 0 -5.56 6.94 53.4 53.4 0 0 0 -18.4 2c-0.38 -27.3 13.46 -45.78 40.48 -48.94A9.2 9.2 0 0 1 62 154.1a36.74 36.74 0 0 1 7.36 8.24 0.52 0.52 0 0 0 0.74 0.16 0.52 0.52 0 0 0 0.16 -0.72c-2.32 -4 -8.28 -11.66 -14 -11.14 -1.16 0.1 -3.58 0.42 -4.68 0.6 1.86 -5.36 8.34 -8.24 13.16 -4 5.8 5.18 7.48 14.92 8 16 0.24 0.42 0.68 0.36 0.8 0a22.32 22.32 0 0 0 -0.98 -4.38 8 8 0 0 0 10 -5.08 15.06 15.06 0 0 0 0.26 -2c1.72 0.26 3.42 0.6 5.12 1.02a28.62 28.62 0 0 1 -10.2 8.6zm29.3 77.74c-0.76 10.7 -41.56 14.36 -66.26 5.46a6 6 0 1 0 -8.98 -4.18c-4.76 -3.08 -6 -6.98 -2.4 -11.2 11.62 4.34 26.14 -2 35.54 -10.26a32 32 0 0 0 3 3.58c-2.7 1.2 -4.72 2.26 -7.32 3.58a0.32 0.32 0 0 0 0 0.52 103.62 103.62 0 0 0 9.76 6 0.32 0.32 0 0 0 0.46 -0.3c0 -0.7 0 -2.8 -0.14 -7.32a27.04 27.04 0 0 0 24.64 4.8c3.7 1.36 6 2 8.18 2.66a0.3 0.3 0 0 0 0.36 -0.38c-0.12 -0.6 -0.52 -2.32 -1.38 -5.5 0.86 -0.52 1.7 -1.12 2.5 -1.72a42.2 42.2 0 0 1 2.04 14.24zm-74 2a4.94 4.94 0 0 1 6.74 -6 5 5 0 0 1 -0.32 8.92 50.5 50.5 0 0 1 -6.34 -2.92zm19.32 -48.44c1.44 0.62 3.86 1.6 6.86 2.78v0.94c-2.36 1.64 -4.56 3.3 -6.58 4.86 -0.02 -3.3 0 -5.3 -0.2 -8.58zm50 3.58c1.1 -0.34 2.24 -0.76 3.4 -1.22a22 22 0 0 1 -2.84 14 75.78 75.78 0 0 0 -0.44 -12.78zm-5.72 33.04a29.56 29.56 0 0 0 4.78 -2.2c0.38 1.54 0.8 3.08 1.08 4 -1.94 -0.7 -3.9 -1.28 -5.74 -1.8zm-13.64 -48.8a16.5 16.5 0 0 1 6.12 -1.26c-0.78 2 -1.72 4.6 -2.36 6.34 -1 -1.62 -2.22 -3.22 -3.64 -5.08zm-13.2 50.62a140.06 140.06 0 0 0 -7.84 -4.7c2.32 -1 4.26 -1.88 6.8 -3.14l0.86 0.8c0.04 2.74 0.12 5.3 0.18 7.04zm32.52 -36a39.54 39.54 0 0 0 -2.72 -10.16c0 -0.22 -0.36 -0.88 -0.86 -0.68s-0.32 0.52 -0.16 0.88c2 4.84 3.72 15.8 3.18 25.8 -7.7 10.28 -21.5 9.76 -27.82 -0.46a5.62 5.62 0 0 0 0.36 -1.12c1.64 -1.04 3.34 -2.24 3.34 -3.12a0.78 0.78 0 0 0 -0.68 -0.88 2.44 2.44 0 0 0 -0.9 0.12c0.46 -0.66 0.78 -1.4 0.28 -2s-1.66 0 -2.18 0.4a2.92 2.92 0 0 0 -0.94 0 2 2 0 0 0 0 -1.56 0.64 0.64 0 0 0 -0.54 -0.28c-0.54 0 -1.06 0.56 -1.42 1.02a21.24 21.24 0 0 1 10.96 -22.24c2.22 3.12 4 5.34 4.66 6.22a0.34 0.34 0 0 0 0.54 -0.12c0.32 -0.8 1.24 -3.1 2.96 -7.74 7.56 0.5 13.68 6.26 15.32 14.46 -1.26 0.62 -2.36 1.08 -3.38 1.48zM77.54 169.54A30.14 30.14 0 0 0 70.66 174a3.42 3.42 0 0 1 -1.34 -4.42c1.72 -3.94 7.38 -3.58 8.22 -0.04zM35.84 198.64c1.08 -1.46 2.78 -3.72 4.16 -5.48l2 6.3a40.88 40.88 0 0 0 -6.16 -0.82zm9.36 3c-0.12 0.74 -0.26 1.48 -0.4 2.22a27.28 27.28 0 0 0 -7.1 0.46 0.54 0.54 0 0 0 -0.42 0.64 0.5 0.5 0 0 0 0.6 0.42c12 -2 19.52 4.96 31.46 3.84a0.58 0.58 0 0 0 0.5 -0.5 11.78 11.78 0 0 1 2 -5.16c0.38 -0.56 1 -0.86 0.86 -0.2a5.72 5.72 0 0 1 -0.34 0.58c-0.14 0.26 -0.3 0.52 -0.4 0.76s0.38 0.86 0.68 0.4a1.06 1.06 0 0 1 1.1 -0.46 9.06 9.06 0 0 0 -0.98 0.86c-0.36 0.42 0.12 0.86 0.5 0.44a7.52 7.52 0 0 1 1.62 -1.26 1.26 1.26 0 0 1 0.96 -0.22s0 0.16 -0.16 0.46a9.34 9.34 0 0 1 -1.82 1.7 0.4 0.4 0 1 0 0.48 0.66 14.7 14.7 0 0 1 1.82 -1.02c0.48 -0.18 0.64 0 0.66 0s0 0.28 -0.3 0.56a13.68 13.68 0 0 1 -2.82 1.82c-0.2 0 -0.34 0.16 -0.4 0.4a4 4 0 0 1 -0.32 1.24 4.98 4.98 0 0 1 -3.08 2.22 0.28 0.28 0 0 0 -0.16 0.1c-11.34 12.9 -27.86 19.4 -39.28 15.46 -10.64 -3.66 -14 -14.86 -14.34 -26.16 11.02 -3.16 24 -2.16 29.08 -0.26zm72.58 0a33.58 33.58 0 0 0 -0.82 -12 61.6 61.6 0 0 0 7.42 -4.98 88.62 88.62 0 0 1 6 20.72zm-7.12 -32.74c1.66 2.28 2.94 4.16 5.76 7.62L109.76 176a29.76 29.76 0 0 0 -2.8 -2.7c1.04 -1.18 2.04 -2.36 3.7 -4.4zM194.44 240a0.14 0.14 0 0 1 0.16 0l5.62 2 -3.82 10.6a1.68 1.68 0 0 0 1.02 2.14l11.86 3.5a1.7 1.7 0 0 0 2 -1.18l6.44 -23.52a1.52 1.52 0 0 0 -1.06 -1.88l-23.06 -7.14c4.34 -5.52 25.48 -3.36 46 -1.26a371.72 371.72 0 0 1 42.16 6.18c4 1.18 6.12 2.88 7.3 5.7 2.68 6.36 0.24 24.14 -0.56 30 -1.14 8.66 -4.18 31.66 -14.28 35.58 -5.3 2.16 -15.54 1.7 -20 1.5 -3.9 -0.18 -38.66 -2 -55.12 -8.14 -6 -2.22 -9.5 -5.12 -10.96 -8.9 -3.02 -7.78 -0.76 -33.08 -0.42 -36.64l1.64 0.58a1.7 1.7 0 0 0 2.12 -1zm-15.34 3.68a1.66 1.66 0 0 0 1.02 2.16l6 2c-0.74 7.16 -2.76 29.88 0.3 37.84 1.56 4.18 5.62 7.5 12 9.86 12.74 4.66 40 7.48 55.3 8.26 10.24 0.5 17.16 0 21.12 -1.6 11 -4.18 14 -26.78 15.22 -36.44 0.96 -7.62 3.18 -24.52 0.34 -31.58 -0.52 -1.28 -1.74 -4.3 -8.4 -6.36a362.42 362.42 0 0 0 -40.48 -6.2C204.52 218 196.18 219.02 192 224l-35.4 -10.7c7.32 -64.9 18.84 -134 24.7 -162.56 3.62 -17.22 4.26 -20.3 25.86 -22.4 35.58 -3.44 100.3 -2.66 132.74 -1.36 14.84 0.66 14.84 5.74 13.56 20.54 -6.32 81.1 -20.6 176.64 -22.96 194.86 -5.16 39.68 -13.82 106 -16.44 116 -1.48 6.26 -2.72 10.22 -7.5 12.42 -12.34 5.64 -82.42 -2.7 -108.8 -5.84 -4 -0.48 -40 -4.74 -46 -7.04 -4 -1.5 -5.76 -5.56 -5.58 -12.8 1.6 -39.44 5.02 -79.38 9.16 -118.32 27.9 9.36 26.56 8.8 26.66 9zm-25.8 -17.58 0.5 0.16c-4.72 44 -8 89.22 -9.26 119.02 -0.14 5.34 0.48 11.78 6.4 14 10.5 4 96.46 12.54 107.22 13.44 30.28 2.54 42.18 2.38 48.94 -0.68 5.4 -2.48 6.8 -6.8 8.32 -13.08 3.18 -12 14.6 -101.1 17.72 -124.52 0.64 -4.24 15.58 -104.72 21.82 -186.88 1.26 -15.08 1.16 -21.36 -15 -22 -36.5 -1.42 -102 -2 -133.28 1.22 -21.62 2 -22.86 4.96 -26.62 22.92 -5.56 26.94 -17.28 97.38 -24.76 163.22l-10.28 -3.12c5.44 -49.46 11.32 -87.44 20.24 -140.18 2.38 -14 4 -22.72 6.38 -33.44C176 17.5 179.64 16 228.62 13.06c29.72 -1.36 75.72 -2.24 111.48 -1.14 21.14 0.64 29.62 3.46 28 25.72 -3.46 47.04 -10 109.24 -17.5 166.38 -13.3 91.02 -20 151.32 -26.12 169.44 -2.68 8 -6.56 12.7 -18.52 13.52 -14 1.12 -140.14 -9.6 -161.6 -16.84 -9.06 -3.06 -12.84 -7.04 -11.16 -32.28 0.16 -3.32 1.78 -34.72 10 -112.2q0.76 -0.24 1.5 -0.54a9.62 9.62 0 0 0 3.54 1.82 5.36 5.36 0 0 0 5.06 -0.78zm-38.86 -13 28.16 9.38 -0.22 0.3a0.44 0.44 0 0 0 0 0.62 0.44 0.44 0 0 0 0.6 0 3.74 3.74 0 0 1 4.46 -0.9 0.44 0.44 0 0 0 0.6 -0.16 12.84 12.84 0 0 1 1.12 -2.22c0.32 -0.38 0.76 -0.24 0.78 0a7.7 7.7 0 0 1 -0.74 2 0.44 0.44 0 0 0 0.74 0.44 20.52 20.52 0 0 1 1.24 -2.2c0.56 -0.48 0.88 0 0.66 0.6a9.6 9.6 0 0 1 -0.78 1.6c-0.38 0.68 0.3 1.08 0.86 0.4a15.62 15.62 0 0 0 1.22 -2c0.4 -0.54 0.8 0 0.52 0.5a10.78 10.78 0 0 1 -1.14 1.76 0.46 0.46 0 0 0 0.64 0.66 5.02 5.02 0 0 0 1.18 -1.46c0.68 -1.08 0.86 0 0.46 0.56a6.94 6.94 0 0 1 -1.14 1.38 4.68 4.68 0 0 1 -5.08 1.36 9.62 9.62 0 0 1 -3.38 -1.7 0.52 0.52 0 0 0 -0.54 -0.12c-15.36 5.34 -28.16 1.74 -35.14 -3.5a33.18 33.18 0 0 0 4.92 -7.24zM81.72 149.66q-0.18 1.86 -0.18 3.72a7.38 7.38 0 0 1 -9.42 4 28.5 28.5 0 0 0 -6 -10.74 29.4 29.4 0 0 0 1 -3.44 12 12 0 0 0 14.6 6.46zm-0.54 -1.12a10.46 10.46 0 0 1 -10.2 -2.12 12.78 12.78 0 0 1 -3.4 -12.56 3.14 3.14 0 0 0 0.74 -0.1 0.4 0.4 0 0 0 0.38 0.46 13.68 13.68 0 0 0 5.42 -1.44c3.06 -1.32 4.22 -1.66 5.38 1.38a0.48 0.48 0 0 0 0.92 -0.28c-0.68 -3.16 -2.58 -3.48 -4 -3.18a13 13 0 0 0 -3.08 1.16 17.24 17.24 0 0 1 -4.12 1.48 0.54 0.54 0 0 0 -0.68 -0.8 2 2 0 0 1 -1.6 0 3.7 3.7 0 0 1 -2 -2.22c-0.84 -2 0.36 -3.3 1.62 -3.06a4.22 4.22 0 0 1 2.36 2.12 0.54 0.54 0 0 0 0.96 -0.48l-0.12 -0.22a15.32 15.32 0 0 0 5.12 -11.6c5.14 -1.46 8.7 -3.5 11.6 -2.6s4 4 4.22 4.42a32.82 32.82 0 0 1 -2.78 14.84c-1.78 -1.68 -4.76 -1.32 -7.06 -0.38a0.48 0.48 0 0 0 -0.28 0.6 0.46 0.46 0 0 0 0.58 0.28c4.96 -1.66 7.74 0 6.8 5.48a10.58 10.58 0 0 1 -6.78 8.82zm10.46 -29.18c4 2.2 2 8 -1.4 11.14a26.9 26.9 0 0 0 1.4 -11.14zm-17.82 -2a18.8 18.8 0 0 1 -4.74 10.3 4 4 0 0 0 -2.32 -1.66 14 14 0 0 1 0.2 -8 19.82 19.82 0 0 0 6.86 -0.58z" stroke-width="2"></path><path d="M237.7 168c-18.24 0.82 -30.82 9.14 -35.44 23.48a57.58 57.58 0 0 0 -1.74 22 1.34 1.34 0 0 0 1.44 1.22c0.62 0 1.48 -0.12 3.46 -0.18 9.64 -0.28 10.72 0.28 11.52 0a1.76 1.76 0 0 0 1.34 -1.74s0.26 -2.58 0.26 -2.68c0.78 -8.6 1.66 -18.34 12.84 -21.66 7.76 -2.3 26 -2.44 32 5.62 4.64 6.22 3.72 16.26 3.2 23.86 -0.16 0.76 0 1.26 0.44 1.56a28.28 28.28 0 0 0 4.54 0.82c11.7 1.8 12.7 2.88 13.16 0.86 3.46 -14 6 -31.62 -4.46 -42.16 -9.94 -9.7 -31.42 -11.5 -42.56 -11zm30.14 50c1.5 -11.48 0.44 -19.8 -3.14 -24.72 -4.12 -5.64 -13.68 -7.6 -22.12 -7.6a42.98 42.98 0 0 0 -11.66 1.44c-12 3.62 -12.92 13.42 -13.88 25.14 0 1.14 -0.14 1.16 -0.6 1.16 -0.86 0 -3.42 -0.24 -11.16 0 -3.68 0 -3.14 0.18 -3.26 -1.02 -2.48 -25.42 9.68 -41.4 35.7 -42.3 7.02 -0.24 30.76 -0.24 40.96 10 10 10 7.76 26.66 4.7 40.14 0 0.36 -0.12 0.56 -1.08 0.52 -1.74 0 -14.16 -2 -14.52 -2.22a2.76 2.76 0 0 1 0.06 -0.54zm41.88 -94.3A55.52 55.52 0 0 0 222 59.24c-37.48 34 -13.02 96.64 37.36 96.64a55.34 55.34 0 0 0 50.36 -32.18zm-31.56 -38.98a19.86 19.86 0 0 1 -22 17.3 18.94 18.94 0 0 1 -12.74 -7.8c-9.48 -13.2 -0.28 -32.46 15.82 -32.46a19.7 19.7 0 0 1 18.92 22.96zm15.44 56.86a54 54 0 0 1 -75.88 -7.36c8.66 -18 24 -26.7 37.16 -26.38 15.86 0.36 29.6 12.36 38.72 33.74zM36.26 172.8a88 88 0 0 0 -8.86 -1.12 0.28 0.28 0 0 0 -0.32 0.3 80 80 0 0 0 0.5 8.3 0.3 0.3 0 0 0 0.5 0.2c0.88 -0.76 0.68 -0.44 8.32 -7.16a0.3 0.3 0 0 0 -0.14 -0.52zm-7.8 6c0 -2 -0.22 -4 -0.5 -6.28 2.44 0.44 4.68 0.76 6.66 0.96 -1.66 1.48 -4.38 3.8 -6.16 5.4zM88 236.3c-5.78 -0.98 -9.22 -1.18 -10.34 -1.3a0.28 0.28 0 0 0 -0.32 0.3c0 3.26 0.18 6.56 0.5 9.82a0.3 0.3 0 0 0 0.5 0.2 113.24 113.24 0 0 0 9.8 -8.52 0.28 0.28 0 0 0 -0.14 -0.5zm-9.2 7.28c0 -2.36 -0.28 -4.94 -0.58 -7.68 2.28 0.38 4.5 0.8 8.14 1.16 -2.02 1.68 -5.46 4.62 -7.6 6.52zm-19.2 -82.44a70.86 70.86 0 0 0 -6.72 -8 0.3 0.3 0 0 0 -0.5 0c-1.74 5.16 -2.56 8.18 -3.32 10.96a0.3 0.3 0 0 0 0.36 0.36c3.26 -0.82 6.76 -1.86 10 -2.86 0.4 0.04 0.42 -0.14 0.18 -0.46zm-9.26 2.24c0.92 -2.88 1.72 -5.64 2.56 -8.82 2 2.58 3.42 4.14 5.4 6.52 -2.14 0.58 -5.78 1.62 -7.96 2.3zm46.04 45.5c-0.78 -1.02 -2 -2.54 -6.72 -7.64a0.3 0.3 0 0 0 -0.5 0c-1.56 4.22 -2.8 8 -3.68 11.22 0 0.26 -0.16 0.42 0 0.58a0.28 0.28 0 0 0 0.3 0s2.9 -0.7 11.22 -2.92a0.28 0.28 0 0 0 0.2 -0.2c0.06 -0.04 -0.04 -0.04 -0.82 -1.04zM86.84 212c1.14 -3.16 2 -6.26 2.92 -9.16 2.2 2.68 3.56 4.36 6 6.9 -2.44 0.46 -6.52 1.5 -8.92 2.26zm-30.56 17.02c-2.3 0.44 -1.24 0 -10.48 2.14a0.32 0.32 0 0 0 -0.16 0.5c5.12 5.52 7.9 8 8.22 8.26a0.3 0.3 0 0 0 0.5 -0.14s0.62 -2.6 2.26 -10.4a0.3 0.3 0 0 0 -0.34 -0.36zm-9.26 2.72c3.16 -0.52 5.36 -0.86 8.44 -1.56 -0.52 2.14 -1.34 5.82 -1.82 8 -2.04 -2.18 -4.16 -4.18 -6.62 -6.44zM23.5 183.06a0.32 0.32 0 0 0 -0.52 0.12c-1.4 4.18 -2.48 7.82 -3.2 10.84 -0.1 0.38 0 0.74 0.3 0.64l10.12 -2.9a0.3 0.3 0 0 0 0.14 -0.48 89.64 89.64 0 0 0 -6.84 -8.22zm-2.52 10.34c0.92 -2.84 1.7 -5.66 2.54 -8.94 2 2.62 3.26 4.22 5.42 6.66 -2.14 0.58 -5.76 1.62 -7.96 2.28zM61 167.08a0.3 0.3 0 0 0 -0.46 -0.16 82.92 82.92 0 0 0 -7.22 5.7 0.3 0.3 0 0 0 0 0.52 91.74 91.74 0 0 0 9.58 3.04 0.3 0.3 0 0 0 0.3 -0.36c-0.06 -0.52 -0.08 -1.02 -2.2 -8.74zm-6.26 5.56c2.2 -1.6 3.76 -2.76 5.58 -4.3 0.42 1.68 1.16 4.56 1.72 6.54 -2.3 -0.88 -4.54 -1.48 -7.3 -2.24zM96 187.42a90.36 90.36 0 0 0 -7.76 6 0.3 0.3 0 0 0 0 0.5 101.56 101.56 0 0 0 10.3 3.22 0.32 0.32 0 0 0 0.3 -0.38c-0.34 -1.2 0.28 0.58 -2.48 -9.18a0.32 0.32 0 0 0 -0.36 -0.16zm-6.32 6c2.78 -2 4.2 -3.02 6.12 -4.62 0.44 1.8 1.28 4.96 1.88 7.02 -2.54 -0.84 -5.02 -1.56 -8.04 -2.38zm-49.48 -13.6a4.56 4.56 0 0 0 -6.4 5.34A4.52 4.52 0 0 0 39.42 188a4.4 4.4 0 0 0 0.78 -8.18zm-4.38 1.48a3.54 3.54 0 0 1 3.9 -0.5 3.4 3.4 0 1 1 -3.9 0.5zm46.86 9.84a5.54 5.54 0 1 0 2.26 7.54 5.44 5.44 0 0 0 -2.26 -7.54zM78 200a4.2 4.2 0 0 1 -2 -5.6 4.72 4.72 0 0 1 4.26 -2.66 4.26 4.26 0 0 1 4 6A4.72 4.72 0 0 1 78 200zM35.62 168.22a4.62 4.62 0 0 0 6.38 -1.72 4.22 4.22 0 0 0 -1.5 -5.8 4.7 4.7 0 0 0 -6.38 1.74 4.26 4.26 0 0 0 1.5 5.78zm4 -6.72a3.2 3.2 0 0 1 1.56 4.26 3.64 3.64 0 0 1 -4.84 1.74 3.24 3.24 0 0 1 -1.54 -4.3 3.64 3.64 0 0 1 4.82 -1.7zm58.12 5.42a5.14 5.14 0 0 0 6.94 -1.54 4.96 4.96 0 0 0 -2.84 -6.4c-4.48 -2.2 -8.12 1.04 -7 4.66a5.54 5.54 0 0 0 2.9 3.28zm4.26 -0.58a5.2 5.2 0 0 1 -6 -2.78c-1.32 -3.14 2 -5.34 5.42 -3.64s3.64 5.38 0.58 6.42zM96 234a4.76 4.76 0 1 0 2.84 9.1A4.78 4.78 0 1 0 96 234zm2.58 8a3.76 3.76 0 0 1 -4.58 -5.08 3.7 3.7 0 0 1 2.4 -2 3.76 3.76 0 1 1 2.18 7.08zM56 180.76a3.9 3.9 0 1 0 -0.66 7.24 4 4 0 0 0 0.66 -7.24zm-3.12 6a2.88 2.88 0 1 1 3.9 -1.26 2.88 2.88 0 0 1 -3.9 1.32zm14.54 49.52c-4.56 -2 -9.8 2.34 -8.38 6.74a5.42 5.42 0 0 0 5.32 3.58 6 6 0 0 0 6.22 -5.48 4.96 4.96 0 0 0 -3.16 -4.84zM60 242.7a4.84 4.84 0 0 1 4.94 -5.82 4.2 4.2 0 0 1 4.54 4.2 5.18 5.18 0 0 1 -7.46 4 4 4 0 0 1 -2.02 -2.38z" stroke-width="2"></path></g></svg>