<svg xmlns="http://www.w3.org/2000/svg" viewBox="0 0 400 400" height="400" width="400"><g fill="#000000" fill-rule="evenodd"><path d="M214.76 355.38c0.18 -0.56 0.66 -1.9 -0.3 -1.9a95.7 95.7 0 0 0 -10.56 0.38c-0.42 0 -0.42 1.28 -0.62 1.9a35.54 35.54 0 0 0 0.74 19.78c0.86 2.52 0.48 2.58 3.54 2.62h7.62c2 0 -0.24 -2.74 -0.34 -2.98a24.5 24.5 0 0 1 -0.08 -19.8zm-9.06 21.62c-2.44 -9.04 -3.38 -12.66 -0.72 -22l8.56 -0.16a24.32 24.32 0 0 0 0.96 22c-2.88 0.06 -5.86 0.1 -8.8 0.16zm-56.24 -57.44 -6 -0.86a0.38 0.38 0 0 0 -0.34 0.4 0.38 0.38 0 0 0 0.18 0.3 30.3 30.3 0 0 0 6 1.26c0.7 0.08 0.88 -1 0.16 -1.1zm46.06 36.68c0.78 -2.16 0.16 -3.02 -0.86 -3.02 -5.4 0 -62.68 -0.18 -63.82 0.32l-0.46 0.44a31.86 31.86 0 0 0 -0.56 18c0.24 0.86 1.7 5.84 2.54 6 18.9 1 44.28 0.58 63.34 0.3 0.84 0 0.82 -0.68 0.46 -2 -1.74 -6.64 -3.12 -13.26 -0.64 -20.04zm-62.88 20.66c-2.66 -8 -3.9 -13.84 -1.18 -22.36 18 -0.38 42.98 0 63.16 0 -2.94 5.08 -1.48 17.32 0.64 22.46 -20.92 0.46 -41.74 0.12 -62.62 -0.1zM186.76 142.44c10.48 -7.84 23.54 -11.32 36.36 -13 3.88 -0.52 7.78 -0.78 11.66 -1.26a0.38 0.38 0 0 0 0.28 -0.46 0.38 0.38 0 0 0 -0.34 -0.3c-16.36 0.36 -35.42 4.22 -48.32 14.5 -0.4 0.26 0.04 0.78 0.36 0.52zM192 144.46c-0.4 0.2 -0.18 0.82 0.22 0.64a200.7 200.7 0 0 1 38.16 -13.74c8.96 -2.12 19.36 -3.48 27.72 -7.18a0.3 0.3 0 0 0 -0.2 -0.58c-18 6.28 -28.78 5.26 -52 14.58 -4.64 1.92 -9.26 4 -13.9 6.28zM123.16 354.54c0.78 -2.12 -10 -0.94 -10 -0.94 -1.72 -0.24 -4 14.9 1.6 24.16 0.62 1.06 5.08 0.54 7.76 0.42s2.86 0.82 1.84 -1.84c-2.88 -7.24 -4.1 -14.08 -1.2 -21.8zm-7.74 22.76a32.32 32.32 0 0 1 -1.84 -22.88c1.42 0.28 6.32 0.2 8.1 0.22 -2.34 6.74 -2.24 16 1.82 22.28a51.16 51.16 0 0 0 -8.08 0.38zm34.9 -61.58 -6.32 -0.96c-1.48 -0.18 0.42 2.22 6.36 2 0.6 0.02 0.56 -1 -0.04 -1.04zm12.08 -75.14 0.8 7.18c0 0.4 2 2 0.28 -7.46 -0.12 -0.7 -1.22 -0.44 -1.08 0.28zm-3.94 -0.58c-0.96 0 0.38 4.54 0.42 7.88 0 1.26 2 0.28 0.44 -6.26 -0.1 -0.52 -0.18 -1.62 -0.86 -1.62zm-3.56 1.4c-1.24 -1.02 0 2.96 0 3.3a20.8 20.8 0 0 1 0.22 3.16c0 0.7 1.34 0.8 0.86 -3.28 -0.14 -0.88 -0.38 -2.58 -1.08 -3.18zm75.48 113a11.7 11.7 0 0 0 -11.24 12.12v0.28a11.36 11.36 0 0 0 20.86 5.8 11.52 11.52 0 0 0 -9.62 -18.2zm8.56 17.18c-5.5 7.84 -17.8 5.4 -18.44 -5.16a10 10 0 0 1 8.36 -10.54 10.16 10.16 0 0 1 10.08 15.7zm-155.2 -5.02a12 12 0 0 0 6.68 8.34c9.08 4.78 19.6 -6.86 13.24 -16.26s-21.9 -3.54 -19.92 7.92zm8 7.74a9.74 9.74 0 1 1 10 -16 9.8 9.8 0 0 1 -10.02 16zm162.12 -82.16c4.84 -0.24 26.66 0.56 28.66 0a0.54 0.54 0 0 0 0.28 -0.68 0.64 0.64 0 0 0 -0.28 -0.28c-2.98 -1.18 -24.62 0 -28.66 0.24a0.36 0.36 0 1 0 0 0.72zm67.74 73.44c0.58 0 0.64 -0.98 0 -1.04 -5.7 -0.64 -54 -0.32 -60.4 -0.16 -0.42 0 -0.46 0.74 0 0.76 7.66 0.28 55.44 0.86 60.4 0.44zM164.26 175.74c0.42 2.52 3.04 20.78 2.98 22.52a20.44 20.44 0 0 0 13.88 0.36c0 -3.1 2.64 -18 3.26 -21.66a31.82 31.82 0 0 1 -20.12 -1.22z" stroke-width="2"></path><path d="M378.3 387.72h-28.56a2.44 2.44 0 0 0 -0.66 -3.4 2.48 2.48 0 0 0 -2 -0.34l-3.68 0.12c-3.88 -12 -3.6 -27.58 2 -35.68h3.08c4 0.44 5.22 -4.76 -0.42 -4.76l-20.36 0.16c10 -6.66 6.54 -36.54 -2.86 -36.48h-9.14c2.6 -3.54 -1.6 -4.14 -3.88 -4.16h-7.02c-4 -6.76 -3.8 -16 -3.64 -23.88 0 -5.14 0.72 -13.22 4 -19.2 1.78 0 3.5 0.2 4.96 0.16 5.62 -0.14 6 -7.14 0.14 -7.3q-31.44 -0.88 -62.86 -1.18c52.22 -5.58 34.4 -56.4 11.34 -53.28 -2.14 0.28 -12.52 2.6 -24.88 5.4 -13.58 3.46 -39.26 17.46 -53.04 24.4 -3.72 1.9 -7.44 3.8 -11.26 5.6a14.92 14.92 0 0 0 0.22 17.08c-6 0.92 -19.56 1.38 -24.64 -2.86 -6.18 -5.16 8 -13.46 14 -15.1a28.9 28.9 0 0 1 10.72 -0.86c4 -2.14 8 -4 12 -6 12.38 -6.22 27.4 -14.3 40 -19.48 -15.7 3.58 -31.44 7.16 -36.34 8 -3.02 3.64 -20.16 5.08 -22.66 0.84 -2.2 -0.3 -47.86 -11.56 -54.36 -13.16 -3.32 -0.82 -28.28 -4.32 -31.84 16.14 -1.78 10.18 3.7 22.86 12.18 35.46 -5.42 0.28 -8.78 -0.86 -12 3.88 -7.86 11.26 -4.26 46.66 8 51 -9.04 0 -18 0 -27.14 0.34a1.68 1.68 0 1 0 0.46 3.32 47.58 47.58 0 0 1 5.34 0 38.18 38.18 0 0 1 0.42 29.7 22.88 22.88 0 0 1 -3.7 0.1c-2.92 -0.38 -2.86 3.24 -0.5 3.26 7.22 0 13.28 0.1 20.5 0 -6.94 2.5 -9.04 31.6 0.34 42 -20 0 -38.96 -0.14 -58.98 0.16 -0.6 0 -0.6 1.08 0 1.08 72 1.16 144 1.36 216.24 1.26 46.84 0 93.66 0.2 140.36 -0.98 0.9 0.08 1.08 -1.36 0.12 -1.36zm-35.64 -3.6c-28 0.74 -82 -0.22 -83.2 -0.34a3.36 3.36 0 0 1 -2.7 -2c-4.46 -9.1 -4.58 -24.76 -1.26 -32.82 27.68 0.3 60.42 -0.32 88.46 -0.56 -5.74 6.8 -5.96 27.86 -1.3 35.72zm-23.4 -69.4c3.18 0 3.42 0.28 3.8 1.08a22.18 22.18 0 0 1 -0.3 19.88c-1.1 1.9 -1.34 1.74 -4.36 1.74l-11.32 -0.2c-4 -0.14 2.78 -7.16 -1.8 -20.4 -0.78 -2.26 2 -1.84 4 -1.9zm-7.12 -10.3c4.98 0 2.86 3.26 1.16 3.42h-151a25.64 25.64 0 0 0 0.84 -3s133.12 -0.2 149 -0.42zm-34.64 26.64a0.52 0.52 0 0 1 0 -1.02c4.32 -0.86 14.9 -0.58 20 -0.62 2.48 0 3.32 1.68 -1.22 1.58 -6.28 -0.06 -12.54 0.32 -18.78 0.06zM298.6 324c-4.78 0 -18.48 -0.14 -20.82 -0.46 -0.24 0 -1.62 -1.18 2.1 -1.26h17.3c4.82 0 3.04 1.72 1.42 1.72zm-0.2 -6.48c-1.14 0.82 -20.7 0 -22.18 -0.24a0.54 0.54 0 0 1 -0.48 -0.62 0.56 0.56 0 0 1 0.48 -0.5c4.24 -0.48 15.86 0 20.74 0 1.34 -0.16 2.38 0.62 1.44 1.3zM275.78 336c8 -0.7 15.34 -0.64 23.1 -0.64 2 0 2.16 1.6 -0.26 1.6l-22.8 0.24a0.6 0.6 0 0 1 -0.04 -1.2zM248 321.5c-0.2 -0.78 -2 -5.7 -0.76 -6 2.78 -0.62 16.26 -0.32 20 -0.52 2.56 -0.14 3.22 0.76 4 3a27.66 27.66 0 0 1 -0.76 19.1c-1.1 1.52 -1.6 1.22 -4 1.24 -32.3 0.22 -14.48 3.44 -18.48 -16.82zm52 -46.26c-2.12 0.14 -24.56 0.54 -38.6 -0.64 -0.4 0 -0.46 0.96 0 0.96a270.64 270.64 0 0 0 38.62 0.96c0 2 0 2.84 -0.12 4.7 -6.92 0.74 -16.72 0.34 -24 0.46 -0.5 0 -0.58 1.06 0 1.06 7.86 0 16.24 0.2 24 -0.12 0 6.4 -0.32 15.52 4 20.56h-55.8c-7.36 -17.36 -7.86 -25.8 -1.2 -43.14h56.8a54.18 54.18 0 0 0 -3.7 15.2zm-168.34 -44.6 12.54 22.98q58.32 -1.2 116.64 -0.38 24.76 0.32 49.52 1.04c3.72 0 4.14 4.52 -0.18 4.52H147.02l0.7 1.28h97.7a41.42 41.42 0 0 0 -4 13.42c-11.5 -0.12 -55.72 0.3 -71.7 0.6 -0.46 0 -0.4 0.72 0 0.72 5.06 0 71.1 0.22 71.54 -0.38 0 2.38 -0.22 4.76 -0.32 7.16 -5 -0.54 -46.68 0.3 -55.74 0.52 -0.42 0 -0.38 0.64 0 0.64s54.82 0.28 55.74 0a47.04 47.04 0 0 0 1.5 9.72c-0.84 -0.54 -37.16 0 -40 0a0.32 0.32 0 0 0 -0.26 0.38 0.32 0.32 0 0 0 0.26 0.26s39.58 0.96 40 0a34.82 34.82 0 0 0 4.4 10.44H163.2c0.44 -3.06 0 -7.08 -3.8 -7.64a5.58 5.58 0 0 0 0 -2.44c-2.92 -12 -12.68 -31.04 -18.88 -42.82 -3.4 -6.46 -6.66 -12.96 -10 -19.44 -0.34 -0.8 0.8 -1.22 1.16 -0.58zm29.5 77.16c-1.84 6.26 -7 17.2 -12.6 20.8 -2.5 1.62 -3.3 1.32 -4.76 -1.2 -3.7 -6.42 -2 -13.56 -1.44 -20.46 7.04 2.2 14.8 -4.28 16.8 -9.86 4.72 0.5 2.82 7.82 2 10.68zm-49.84 -26.94 -15.56 0.52a0.38 0.38 0 0 0 -0.32 0.42 0.4 0.4 0 0 0 0.32 0.32l16.6 -0.18c2.68 2.72 5.34 5.3 8 7.7q-13.32 -0.26 -26.66 0.56c-0.46 0 -0.46 0.74 0 0.72 9.32 -0.26 18.64 -0.3 28 0a178 178 0 0 0 15.24 12.76c-14.78 0 -30.14 -0.38 -44.88 0.22 -4.96 -8.22 -12 -24.54 -5.24 -43.74h6.8a221.46 221.46 0 0 0 17.7 20.7zM91.06 304l-2 0.14a38.4 38.4 0 0 1 -6.36 -39.12 11.6 11.6 0 0 1 2.86 -5.02c-6.4 12.76 -2.16 34.2 5.5 44zm-15.66 -14a55 55 0 0 1 0.6 -26.4c2.3 -8.28 6.18 -8.3 7.08 -8.4l6.78 -0.14c0.88 1.28 1.78 2.54 2.7 3.82 -2.66 0 -5.32 0 -8 0.1 -1.6 0 -14 24.88 2.74 44.3 2.34 2.76 1.84 1.58 5.12 1.66 11.54 0.26 45.06 -0.32 46.3 0l2.86 1.68c-0.16 0.6 -0.3 1.38 -0.42 2H87.74c-7.94 -2.98 -11.24 -13.68 -12.34 -18.62zm-10.32 52.18a33.78 33.78 0 0 0 2.68 -19.86c7.34 0 57.6 -0.72 60.84 -1.24 0.42 0 0.6 -0.78 0 -0.82 -2.84 -0.36 -53.48 0.82 -61.06 1.2a41.88 41.88 0 0 0 -2.86 -9.14h75.84a25.28 25.28 0 0 0 2 15.34c1.06 2 2.32 3.8 4.84 2.86 6.2 -2.28 11.12 -12.76 13.5 -18.64h74c4.8 11 5.82 18 0 29.34 0.14 0.04 -158.6 0.78 -169.78 1zm281.54 45.48H82c-8.34 -8 -8.64 -40.46 0.8 -41.54 88.76 0.68 177.7 -0.64 265.16 -1.14 4.16 0 2.64 2.18 1.1 2.18 -29.82 0 -64.26 0.76 -92.48 0.58 -1.72 0 -2 0 -2.76 1.62 -4 8 -2.2 26.8 2 33.4a3.44 3.44 0 0 0 2.74 1.8c20.12 1.02 71.34 1.16 89 0.6 1.94 -0.08 1.84 2.38 -0.94 2.54zM148.88 144c-7.62 -3.14 -20.32 -7.08 -28.68 -9.64 -0.38 -0.12 -0.62 0.42 -0.24 0.56 10.98 4 24.54 7.42 34.38 12.8 0.34 0.28 2.52 -0.44 -5.46 -3.72zm13.9 -0.82a0.36 0.36 0 1 0 0.42 -0.56c-4.5 -4 -10.98 -6.2 -16.76 -7.74 -10.62 -2.88 -21.46 -4.76 -32.26 -6.72 -0.36 0 -0.42 0.5 0 0.56 11.12 2.26 29.36 5.58 39.52 9.54a42.38 42.38 0 0 1 9.08 4.92z" stroke-width="2"></path><path d="M269.02 357.1c4.52 0.12 62.36 1.7 64.98 1.3 0.54 0 0.72 -0.96 0.1 -1.04 -2.68 -0.52 -60 -1.04 -65.12 -1.1 -0.52 0 -0.5 0.82 0.04 0.84zM169.7 324h59.2c0.78 0 0.84 -1.32 0 -1.32l-59.2 0.6a0.36 0.36 0 1 0 0 0.72zm99.12 -7.36h-20.4a29.18 29.18 0 0 1 -0.36 20.42c7.04 -0.26 14.18 -0.26 21.22 -0.36 3.72 -11.62 0.28 -17.78 -0.46 -20.06zM53.44 132c-7.14 3.8 -4.14 18.4 2.34 21.78 2.48 7.12 9.14 13.6 12.48 16.12 5.8 4.36 3.38 0.82 6.28 6.46 2.4 4.64 6 12 8.64 16.2 1.24 2 65.2 16.96 78.68 20 -1.46 -4.78 -6.52 -48.66 -7.24 -55.26 0 -0.66 1.18 -0.78 1.3 -0.12 3.12 18.7 5.48 37.5 8.14 56.28 1.5 2.94 18.26 2.6 20 -0.2 0.7 -1.24 8.48 -57.58 9.82 -57.58 0.74 0 0.9 0.38 0.8 1.08 -2.56 19.12 -5.32 37.4 -8 55.8 25.6 -5.2 52.64 -12 78 -17.72 0.42 -0.16 0.42 -0.32 0.48 -0.66q5.22 -11.16 10.48 -22.34a24 24 0 0 0 16.26 -18v-0.24c4.76 -3.42 8.24 -10.6 6.8 -16.3 -0.6 -2.42 -1.9 -4.92 -4.56 -5.22l6.2 -13.52c0.8 0 2.68 -5.5 2.14 -6.54 -1.34 -2.6 -7.58 0.52 -9.48 1.2 -0.48 -0.72 -8 -9.28 -8.58 -7.72a123.6 123.6 0 0 1 -40.52 16 17.06 17.06 0 0 0 -2.18 -3.02c10 -2.62 16.18 -22.92 5.54 -36.52a28.4 28.4 0 0 1 -5.06 -7.2c-2.18 -6 3.8 -10.58 6 -15.54a17.08 17.08 0 0 0 -6.44 -20.54c-4.92 -3.02 -11.34 -3.18 -15.84 -6.9 -6.56 -5.36 -4.36 -15.08 -14.68 -20a18 18 0 0 0 -25.8 15.82c-3.3 0 -8.24 1.46 -9.72 4.7 -9.64 0.22 -32 10.62 -24.38 21a39.5 39.5 0 0 0 -2 9.86c-3.68 1.48 -4.62 5.82 -3.58 9.42a6.92 6.92 0 0 0 4 4.92c1.56 8 6.88 16.2 15.54 16.78a6.94 6.94 0 0 0 -0.2 1.24c-16.66 0.22 -34.98 11.54 -42.12 18 -2.16 1.9 -7.78 7.22 -8.78 9.72 -25.4 -2.52 -25.52 -3.24 -48.44 -12.54 -0.62 -2 -6.36 4.76 -7.02 5.5 -6 -2 -12.74 -6 -11.34 0.58 0.14 0.56 5.38 13.72 6.04 15.22zm93.04 -59.72c-0.96 -3.14 -0.32 -6.76 2.64 -8.2a51.78 51.78 0 0 0 0.22 12 5.08 5.08 0 0 1 -2.86 -3.8zM50.8 145.56c-3.1 -8.82 3.52 -16.82 10.6 -12.6 2.42 1.44 2.12 2.42 0 2a7.4 7.4 0 0 0 -5.72 1.06c-2.5 1.78 -1.1 2.86 -0.64 2 1.3 -2.24 7.26 -0.72 8.66 0 1.08 0.52 3.26 2.54 0.16 2 -9.12 -1.54 -9.14 4 -8 2.56s1.8 -1.22 3.8 -0.86a9.68 9.68 0 0 1 3.04 1.08c1.36 0.78 2.92 2.8 -0.48 1.82a7.02 7.02 0 0 0 -2.86 -0.42c-1.68 0.1 -3.38 1.5 -2.86 3.3 0.1 0.36 0.68 0.2 0.62 -0.16 -0.22 -1.3 1.12 -2.16 2.26 -2.2l3.68 7.9c-6.8 2.08 -10.16 -1.46 -12.26 -7.48zm6 8.7a9.64 9.64 0 0 0 6.56 -0.64q4.12 8.7 8.44 17.26a40.9 40.9 0 0 1 -15.06 -16.62zm125.12 55.2c-0.56 1.46 -9.46 3.16 -15.1 -0.28a0.46 0.46 0 0 1 -0.24 -0.64 0.48 0.48 0 0 1 0.64 -0.24c9.14 3.42 13.26 -0.18 14.42 0.4a0.58 0.58 0 0 1 0.22 0.76zm0.82 -5.22a0.62 0.62 0 0 1 -0.18 0.36c-2.66 2.86 -12.82 1.36 -16.32 -0.44a0.5 0.5 0 0 1 -0.26 -0.68 0.52 0.52 0 0 1 0.68 -0.26c8.78 3.44 14.2 0.16 15.52 0.26a0.64 0.64 0 0 1 0.5 0.76zm3.26 -28c-0.2 0.36 -2.7 19.18 -3.8 22.5 1.42 2.52 -10.76 3.42 -16 0.58 -0.62 -0.34 -0.14 -0.76 -0.28 -1.16l-3.02 -24c0.18 -1.06 10.56 4.7 22.3 0.82 0.8 -0.08 1.08 0.72 0.8 1.28zm0.98 -6.6c-2.32 2.46 -16.78 4.32 -25.04 -0.48 -0.62 -0.34 0 -1.1 0.68 -0.84a32.8 32.8 0 0 0 22.68 0.54c1.7 -0.64 2.06 0.32 1.62 0.8zm0.76 -5.82a31.18 31.18 0 0 1 -27.16 -0.66c-0.56 -0.32 0 -1.08 0.48 -0.86a32.86 32.86 0 0 0 26.28 0.12c0.66 0.02 1.1 1.08 0.34 1.42zm-30 -10.42c13.62 -2.84 20.7 -3.3 34.74 0 -6.38 8.7 -27.36 5.5 -34.8 0.02zM276 170.84l8.14 -17.46a9.46 9.46 0 0 0 6.38 1.14 24.18 24.18 0 0 1 -14.52 16.32zm17.24 -37.84c5.18 0.48 5.36 7.08 4.14 10.92a18.2 18.2 0 0 1 -7.38 9.52 11.76 11.76 0 0 1 -5.6 -0.76l3.06 -6.58c0.8 -0.28 2.44 -0.96 2.94 0a0.32 0.32 0 0 0 0.6 -0.2c-0.96 -3.38 -7.74 1.42 -8.58 1.52 -1.16 0.12 -0.62 -0.8 -0.16 -1.46 1.2 -1.82 4.4 -4.46 6.34 -4.44 3.22 0 4.42 2.8 4.42 1.62 0 -4 -9.22 -2.18 -10 -3.24 2.2 -2.3 10.62 -3.82 11.02 -0.68 0 0.72 1.54 -0.12 -0.22 -2 -2.26 -2.2 -10.54 -1.6 -9.08 -2.56a14.28 14.28 0 0 1 8.5 -1.66zm-1.24 -10.52 -4 8.72c-0.42 0.96 -1.82 1.12 -1.58 0l3.58 -7.7a821.88 821.88 0 0 1 -87.8 32.74c-2.4 15.2 -5.16 31.44 -8.76 46 4.6 -1.4 9.28 -2.44 14 -3.56 17.46 -4.2 35.5 -8.24 53.7 -11.6 4.58 -11.36 12.44 -27.86 17.86 -39.6 0.8 -1.7 1.76 -0.84 1.1 0.82 -0.52 1.28 -17.26 39.42 -18.68 40.22 -18.56 3.7 -37.36 7.66 -55.48 12 -2.3 0.54 -11.44 3 -13.4 3.06 -0.34 0 -0.48 -0.38 -0.44 -0.66 2.68 -14.54 6.12 -29.2 8.22 -44 0 -0.62 0.32 -3.6 0.96 -3.82l19.88 -6.56c11.64 -4 23.46 -8.2 35.12 -12.74s23.06 -9.28 34.56 -14.36c1.02 -0.2 1.46 0.44 1.16 1.04zM212.46 168c-0.5 0 -0.56 -0.8 -0.14 -0.96 7.76 -2.58 50.72 -15.24 52.52 -15.48 0.76 0 1.14 1.18 0.3 1.42 -11.52 3.34 -45.56 14.88 -52.68 15.02zm45.4 -6.74c-5.88 1.86 -33.62 10.88 -35.64 10.88a0.52 0.52 0 0 1 -0.48 -0.6 0.52 0.52 0 0 1 0.36 -0.46c3.38 -1.14 33.04 -10.92 35.58 -11.3 0.82 0.02 0.92 1.22 0.18 1.46zm4 -43.62a137.22 137.22 0 0 0 22.86 -11.3l6.84 7.34c-12 4.34 -96.2 34.14 -98.48 38.52 -4.52 -2 -13.28 -2.48 -18.18 -2.42l-0.12 -7A65.14 65.14 0 0 1 193.76 132c21.8 -7.9 43.8 -5.16 68.24 -14.38zM205.5 38c1.12 6 -4.76 10.48 -0.64 16.2 2.6 3.62 8.84 8.28 4 13.6 -3.82 4.28 -8.96 4.18 -10.74 10.84 -1.36 5.16 -1.06 11.76 2.96 15.62a52.94 52.94 0 0 0 -12.94 -0.86l-0.96 -10.38c7.4 -6.9 14 -22 12.16 -30.7a33.46 33.46 0 0 0 -4 -10.48 9.6 9.6 0 0 0 -1.08 -8.2 7.08 7.08 0 0 1 11.24 4.36zm-17.22 56.2 4.4 0.2c2.98 6 1.6 14.16 -5.36 16.28 -5.56 1.7 -13.72 -0.44 -14.66 -7.62 5.32 0.54 14.3 -2.3 15.52 -6.4 0.64 -0.2 0.18 -1.86 0.1 -2.42zm1.02 -64.2c3.38 2.18 5.9 6.68 5.16 10.34 -4.36 -6 -10.68 -8.2 -18 -8.24 2.58 -3.26 9.32 -4.3 12.84 -2.1zM150.12 63.72c8.26 -2.18 10 14.94 0.36 12.76a51.44 51.44 0 0 1 -0.36 -12.76zM158 90.32a24.28 24.28 0 0 1 -7.22 -12.58c5.28 0.94 8.28 -3.82 7.02 -9.44 1.48 -0.6 2.42 -0.86 3.72 0.26 -1.64 10.18 9.26 13.34 12.92 6.14a9.38 9.38 0 0 0 -1.54 -10c-3.44 -3.2 -9.7 -2.94 -11.2 2.94a3.54 3.54 0 0 0 -4 0 6.42 6.42 0 0 0 -7.4 -4.82 51.82 51.82 0 0 1 1.44 -8.92c2.96 3.02 20.58 3.4 25.26 2.36 -0.58 3.24 -1.28 13.5 1.18 16.24a2.42 2.42 0 0 0 3.42 0.14 3.26 3.26 0 0 0 0.34 -0.4c1.1 -1.32 1.24 -3.28 2.84 -4.24 2 -1.1 3.2 0.26 3 2.4 -0.32 3.4 -2 4.32 -1.72 11.88 0 2.36 0.86 12 1.3 14 -2 3.26 -9.78 6.66 -16.44 5.56a8.36 8.36 0 0 1 -5.18 -2.54c0 -1.7 0.14 -3.4 0.2 -5.12a0.6 0.6 0 0 0 -0.3 -1.08A13.56 13.56 0 0 1 158 90.32zm4.28 -21.02c0.88 -8.24 9.8 -6.38 11.24 -1.4 3.32 11.62 -12.46 12.66 -11.28 1.4zm0.8 27.6 1.82 -0.18c-0.12 1.32 -0.3 2.6 0.16 3.06 1.3 2 4.26 2.76 6.52 3.14a11.34 11.34 0 0 1 -7.76 6.26c-10.02 1.4 -5.48 -11.62 -0.78 -12.28zM122.6 115.32a71.08 71.08 0 0 1 37.88 -18 8.76 8.76 0 0 0 -3.26 10.38c2.64 6 11.78 2 14.4 -3.14 1.04 6.78 10.48 9.44 16 7.62 7.5 -2.36 9.14 -10.98 6.3 -17.6a65.72 65.72 0 0 1 48.34 27.26c-8.76 1.62 -17.68 2.42 -26.5 3.72 -2.3 -4.3 -4.42 -4.76 -3.7 -3.66l2.34 3.88c-14 2.16 -30.2 6.16 -40.5 16.64a141.56 141.56 0 0 0 -37.48 -15.38 13.44 13.44 0 0 1 2 -5.84c0.34 -0.56 -0.88 -2.26 -3.24 5.54a145.18 145.18 0 0 0 -20 -3.4 98.78 98.78 0 0 1 7.42 -8.02zm-57.3 -4C104.12 130.46 114 118.46 151.56 132.9a143 143 0 0 1 22.12 10.76c0.14 2 0.26 4 0.4 6.16 -2.5 0 -12.72 1.06 -17.14 3.04C150.66 148 73.16 121.18 59.7 116.48a57.22 57.22 0 0 1 5.6 -5.08zm-8 12c8 2.52 62 23.58 66 25.16 7.56 2.86 25.08 9.14 25.22 10 2.22 13.56 3.88 28.36 6 42.16 0.2 1.32 1.06 3.46 -0.16 3.46l-57.04 -13.54c-1.54 -0.36 -9.54 -2.12 -10.36 -2.86 -2 -1.9 -20.7 -40.14 -20.82 -40.86 -0.18 -1.2 0.88 -1.52 1.54 -0.16 2.42 5.04 19.16 39.62 20.32 40.28l65.18 15.42c-2.22 -13.82 -4.76 -29.02 -5.66 -42.86 -30 -11.54 -60.12 -22.74 -90 -34.76 0.58 1.2 2.8 5.44 2.42 6 -1.2 1.84 -3.8 -6.22 -4 -6.66 -0.26 -1.36 0.6 -1.02 1.36 -0.78z" stroke-width="2"></path><path d="M155.56 142.56a54.82 54.82 0 0 0 -17.28 -5.56c-0.38 0 -0.52 0.5 -0.16 0.56a66.94 66.94 0 0 1 17.06 5.82c3.74 1.9 3.6 0.86 0.38 -0.82zm160.08 232.24c-5.86 -0.54 -41.6 0.5 -48.84 0.7 -0.48 0 -0.38 0.72 0 0.74 6.58 0 44.44 0 48.76 -0.44a0.5 0.5 0 0 0 0.08 -1zm18.48 -4.18c-3.38 -0.76 -44 0.18 -51.76 0.26a0.38 0.38 0 0 0 0 0.76c7.22 0 48.38 0.72 51.76 0a0.52 0.52 0 0 0 0.38 -0.64 0.46 0.46 0 0 0 -0.38 -0.38zM101.34 334.6c-2.54 -1.04 -24.88 0.2 -29.86 0.68 -0.4 0 -0.38 0.76 0 0.74 4 -0.18 28.74 0 29.86 -0.46a0.52 0.52 0 0 0 0 -0.96zM166.3 74.14c0.58 0 1.02 -2.38 0 -2.48s-0.64 2.34 0 2.48zm140.48 261.52h14.46c2.92 -4.78 3.56 -14 -0.2 -19.46l-14 0.2a32.4 32.4 0 0 1 -0.26 19.26zM151.2 311.18a40 40 0 0 1 -7.22 -0.48c-1.54 0 0.18 2 7.14 1.58 0.7 -0.04 0.88 -1.14 0.08 -1.1zm-76.38 18.14c14.36 0 31.02 0.8 45.12 -0.16a0.52 0.52 0 0 0 0.34 -0.62 0.58 0.58 0 0 0 -0.34 -0.34q-22.56 0.16 -45.12 0.46a0.34 0.34 0 0 0 -0.24 0.42 0.36 0.36 0 0 0 0.24 0.24zM154.66 71.5c-0.58 -1.14 -1.4 0.86 -0.8 2s1.68 -0.3 0.8 -2zm5.72 259.28c9.04 0.48 70 2.12 74 1.8 0.6 0 0.72 -1 0 -1.08 -24.62 -0.56 -49.52 -1.58 -74.12 -1.36 -0.26 -0.04 -0.26 0.6 0.12 0.64zM166 84.92c2.38 0.86 5.04 -2 5.04 -3.04 0 -0.5 -0.6 -0.84 -1.2 0.28A3.62 3.62 0 0 1 166 84.34a0.32 0.32 0 0 0 -0.36 0.24 0.3 0.3 0 0 0 0.36 0.34zm-4.22 -5.26h-2.74l0.72 -8.58c0 -0.34 -0.54 -0.48 -0.62 -0.12a56.34 56.34 0 0 0 -0.96 8.58c0 1.6 2.7 1.16 3.82 1.1 0.54 -0.14 0.36 -1.02 -0.22 -0.98z" stroke-width="2"></path></g></svg>