<svg xmlns="http://www.w3.org/2000/svg" fill="none" viewBox="0 0 400 400" height="400" width="400"><g id="content-creation-writting--work-content-creation-writting"><path id="line" fill="#000000" fill-rule="evenodd" d="M341.184 282.384h47.548c0.336 0.006 0.66 -0.122 0.902 -0.356 0.242 -0.232 0.38 -0.552 0.388 -0.888 0.006 -0.336 -0.122 -0.66 -0.356 -0.902 -0.232 -0.242 -0.552 -0.38 -0.888 -0.386 -15.652 -0.556 -31.478 -1.022 -47.434 -1.404 -0.054 1.348 -0.106 2.66 -0.16 3.936Zm-285.456 -3.586c0.0672 1.226 0.1368 2.422 0.2088 3.586H11.2581c-0.16624 0.002 -0.33124 -0.03 -0.48554 -0.092 -0.1543 -0.062 -0.2949 -0.154 -0.41376 -0.27 -0.24004 -0.234 -0.37698 -0.554 -0.3807 -0.89 -0.0037 -0.336 0.12612 -0.66 0.3609 -0.9 0.2348 -0.24 0.55534 -0.376 0.8911 -0.38 14.6915 -0.384 29.5365 -0.736 44.4979 -1.054Z" clip-rule="evenodd" stroke-width="2"></path><g id="computer"><path id="vector" fill="#000000" d="M335.774 321.32c-0.44 -0.416 -4.438 -3.63 -4.774 -3.898 -2.656 -2.124 -5.274 -2.568 -9.838 -2.714 -69.696 -2.236 -95.668 -0.63 -143.322 -3.058 -0.44 -0.022 -79.362 -1.298 -105.042 0.518 -3.054 0.212 -12.2 11.8 -14.25 15.624 -0.0976 0.276 -0.1324 0.572 -0.1016 0.866 0.0306 0.292 0.126 0.574 0.2792 0.824 0.1532 0.252 0.3602 0.466 0.6062 0.628 0.246 0.16 0.5248 0.266 0.8162 0.306 5.9352 0.364 11.885 0.422 17.826 0.176 72.2 -0.566 255.68 4.108 255.68 4.158 19.846 0.122 16.814 0.606 2.12 -13.43Zm-44.156 -4.688c1.552 -0.012 1.548 -0.018 1.548 0.088 17.372 0.372 16.836 0.226 17.43 1.188 4.4 7.116 4.33 6.15 1.054 6 -7.542 -0.358 -4.166 -0.116 -13.856 -0.83 -3.862 -0.28 -4.17 -0.108 -4.56 -1.066 -2.07 -5.112 -2.964 -5.366 -1.616 -5.38Zm-128.19 -2.512c6.665 -0.128 13.3322 0.08 19.976 0.626 0.734 0.036 0.494 0.216 0.18 4.148 -0.062 0.812 -0.634 0.662 -1.496 0.648 -18.756 -0.318 -12.788 -0.122 -18.764 -0.372 -0.758 -0.032 -0.622 -0.046 -0.904 -3.358 -0.14 -1.63 -0.562 -1.702 1.008 -1.692ZM138.8 317.84c1 -3.776 0.9 -3.908 1.572 -4 0.272 -0.036 0 0.09 19.762 0.258 0.31 0 0.478 0.2 0.364 0.454 -0.403 1.202 -0.568 2.472 -0.486 3.74 -0.028 1.234 -0.64 0.64 -2.15 0.616 -20.784 -0.324 -19.28 -0.256 -19.062 -1.068Zm-24.104 -0.926c0.812 -2.886 0.62 -3.044 1.2 -3.118 3.784 -0.476 18.924 0.2 20.498 0.132 1.488 -0.064 1.152 0.05 0.75 1.23 -1.136 3.322 -0.976 3.54 -1.8 3.568 -10.828 0.36 -12.652 0.444 -20.558 0.358 -1.078 -0.014 -0.52 -0.658 -0.092 -2.17h0.002Zm-22.8 0.88c1.8 -4.056 1.62 -4.066 2.364 -4.128 5.908 -0.492 8.7 -0.092 18.656 0.14 1.244 0.028 0.98 -0.182 -1.166 4.684 -0.348 0.788 -0.462 0.58 -4.024 0.762 -5.034 -0.572 -14.572 -0.018 -16.074 -0.082 -0.37 -0.018 -0.28 -0.182 0.246 -1.37l-0.002 -0.006Zm-7.02 10.174c-15.026 -0.2 -13.736 0.772 -23.82 -0.04 10.228 -13.052 10.296 -12.426 10.506 -12.852 0.862 -1.746 2.114 -0.612 12.252 -1.262 0.776 -0.05 6.57 -0.212 7 -0.104 0.074 0.038 0.1368 0.096 0.1826 0.166 0.046 0.07 0.0732 0.15 0.0794 0.234 -0.0406 0.192 -0.1224 0.372 -0.24 0.53 -2.4 4.258 -2.4 4.748 -3.526 4.72 -2.328 -0.054 -20.95 0.71 -19.106 2.066 1.55 1.14 16.55 0.166 18.148 0.15 1.362 -0.014 -0.376 1.216 -0.908 4.2 -0.266 1.562 0.088 2.202 -0.566 2.192h-0.002Zm24.32 -0.62c-0.1 0.77 -0.8 0.72 -1.614 0.72 -20.696 -0.112 -21.562 0.256 -20.882 -0.652 2.978 -3.972 2.356 -5.982 4.4 -5.868 1.4654 0.09 2.9352 0.086 4.4 -0.014 4.638 -0.35 9.276 0 13.914 -0.058 2.126 -0.028 0.514 0.066 -0.214 5.872h-0.004Zm74.574 1.256c-16.9 0.444 -43.552 -1.234 -71.892 -0.708 -1.87 0.036 -1.122 0.154 0.848 -5.446 0.518 -1.474 0.45 -0.874 13.896 -0.948 8.654 -0.044 8.962 -0.958 8.508 0.586 -1.13 3.838 0.822 6.118 1.23 4.516 1.474 -5.81 1.2 -5.488 2.282 -5.478 18.906 0.172 15.444 0.144 20.722 0.4 1.516 0.068 0.2 0.504 1.56 4.66 0.164 0.5 0.904 1.948 1.626 1.534 0.616 -0.35 0.502 -0.916 0.43 -3.716 -0.0266 -0.116 -0.06 -0.23 -0.1 -0.34 -0.262 -1.88 -0.226 -1.916 1.67 -1.898 5.438 0.05 13.77 0.06 18.334 0.368 0.976 0.068 0.522 0.376 0.916 3.584 0.302 2.414 0.878 2.864 -0.028 2.882l-0.002 0.004Zm22.822 -12.988c0.762 0.028 0.576 -0.172 1.08 3.6 0.018 0.056 0.022 0.118 0.012 0.176 -0.01 0.06 -0.036 0.116 -0.072 0.162 -0.036 0.048 -0.084 0.086 -0.14 0.11 -0.054 0.026 -0.114 0.036 -0.174 0.034 -4.502 0.4 -17.172 -0.136 -20.044 0.036 -1.17 0.072 -0.92 0.078 -1.434 -4.274 -0.084 -0.732 -1.686 -0.574 20.78 0.156h-0.008Zm2.128 13.092c-1.556 0 -20.29 -0.076 -21.09 -0.082 -1.2 0 -1.2 0.046 -1.2 -0.862 0.0648 -1.584 0.0038 -3.17 -0.182 -4.742 -0.086 -1.57 -0.14 -0.59 18.162 -0.548 3.506 0 3.484 -0.658 3.766 0.6 1.282 5.622 1.548 5.636 0.546 5.634h-0.002Zm0.712 -12.574c-0.158 -0.662 0.318 -0.512 2.332 -0.5 9.648 0.06 9.648 0.036 9.648 0.086 12.566 0.078 12.312 -0.154 12.53 0.768 0.48 2.038 1.234 4 0.096 3.766 -2.528 -0.526 -17.232 -0.4 -23 -0.554 -0.906 -0.022 -0.768 -0.062 -1.604 -3.566h-0.002Zm8.188 12.656c-6.258 -0.154 -5.988 0.354 -6.136 -0.952 -0.65 -5.66 -1.358 -5.532 0.626 -5.518 20.524 0.132 16.118 0.09 22.486 0.386 1.71 0.076 0.568 2.63 3.444 6.634 -3.192 0.24 -8.256 -0.246 -20.418 -0.54l-0.002 -0.01Zm18.696 -12.334c-0.182 -0.508 0.058 -0.458 0.58 -0.462 14.16 -0.182 14.16 -0.232 14.16 -0.096 11.226 0.068 10.896 -0.264 11.176 0.78 1.222 4.562 1.438 4.52 0.378 4.512 -6.24 -0.042 -7.694 0.122 -24.466 -0.85 -1.082 -0.062 -0.46 -0.068 -1.826 -3.884h-0.002Zm2.764 12.57c0.6 -2.138 -2.152 -6.612 -0.06 -6.258 1.93 0.194 3.87 0.274 5.81 0.24 19.668 1 19.154 0 19.634 1.426 0.346 1.03 1.184 3.368 2.2 5.79 -1.09 0.036 -27.824 -0.34 -27.582 -1.198h-0.002Zm25.512 -12.6c-0.218 -0.6 0.332 -0.446 1.49 -0.436 7.496 0.54 13.124 0.054 21.378 0.558 0.838 0.05 2.304 4.574 2.582 5.4 0.122 0.362 0 0.572 -0.314 0.544 -9.03 -0.862 -3.2 -0.554 -22.722 -1.262 -0.968 -0.03 -0.624 0.032 -2.406 -4.796l-0.008 -0.008Zm52.732 15.324c-0.044 0 -43.266 -1.442 -43.266 -1.4 -4.974 -0.032 -5.122 0.176 -5.268 -0.614 -1.076 -5.876 -2.6 -5.958 -0.286 -5.922 7.488 -0.014 14.972 0.354 22.422 1.104 0.78 0.062 0.658 0.762 1.444 2.024 0.69 1.102 1.982 3.438 3.022 3 0.53 -0.226 0.304 -0.78 0.258 -1.166 -0.448 -3.876 -2.8 -3.762 2.094 -3.376 20.902 1.66 16.69 -0.94 20.724 5.8 0.366 0.622 -0.442 0.64 -1.142 0.558l-0.002 -0.008Zm4.502 0.086c-0.548 -0.04 -0.452 -0.062 -2.618 -4.502 -0.314 -0.634 0 -0.552 1.072 -0.544 11.29 0.088 16.458 0.848 15.4 -0.568 -0.744 -0.984 -2.128 -1.128 -4.874 -1.46 -0.15 -0.018 -10.428 -0.328 -12.13 -0.368 -1.448 -0.036 -1.298 -0.44 -4.724 -5.832 -0.976 -1.538 -2.174 -1.506 8.576 -1.284 8.496 0.172 4.896 -0.876 15.316 9.158 3.14 3.022 5.696 4.752 6.2 5.8 -7.408 0.242 -14.822 0.112 -22.216 -0.392l-0.002 -0.008Z" stroke-width="2"></path><path id="Subtract" fill="#000000" fill-rule="evenodd" d="M71.682 113.8176c3.5276 -0.3932 17.141 -0.8206 36.8092 -1.1554 -0.049 6.1138 -0.09 12.0522 -0.1136 17.7146 -16.4702 0.067 -28.6768 0.14 -33.9042 0.1712l-0.001 0 -0.0054 0c-1.7446 0.0104 -2.71 0.0162 -2.795 0.0156 -0.554 -0.004 -0.644 0.268 -0.644 0.734 -1.7242 83.8784 -1.3332 122.0784 -1.1144 143.4404 0.0638 6.242 0.113 11.046 0.0904 15.134 -0.0082 1.554 2.5466 1.512 18.5814 1.244 26.4256 -0.44 89.4628 -1.492 237.9746 2.99 0.646 -7.426 1.24 -49.096 1.726 -110.737 6.578 -5.1156 12.426 -9.6182 17.628 -13.5946 0.314 52.0676 -3.296 126.9916 -4.232 136.5896 -0.068 0.698 3.562 3.918 8.82 8.584l0 0.002c8.382 7.434 20.9 18.542 29.192 28.974 2.294 2.888 2.018 9.474 1.888 12.57 -0.01 0.21 -0.018 0.406 -0.024 0.582 -0.172 4.674 -0.862 7.846 -10.972 8.064 -51.054 1.104 -336.42 -1.56 -348.552 -5.046 -4.39748 -1.264 -4.45352 -5.44 -4.55244 -12.81 -0.01234 -0.918 -0.02534 -1.888 -0.04752 -2.906 -0.00584 -0.26 -0.02988 -0.504 -0.0538 -0.746 -0.3115 -3.152 -0.60002 -6.074 39.69176 -40.976 0.4342 -0.374 0.3698 -0.668 0.169 -1.59 -0.0536 -0.244 -0.1168 -0.534 -0.183 -0.882 -4.736 -24.996 -3.64 -152.3344 -0.658 -171.3844 1.698 -10.82 5.4 -13.88 15.282 -14.982ZM344.702 134.94c-1.83 -18.7764 -7.608 -19.7616 -26.458 -20.6104 -8.634 -0.3888 -17.908 -0.719 -27.618 -0.9968 0.026 5.8468 0.042 11.7728 0.042 17.7286 15.304 0.2924 28.258 0.6802 37.36 1.1902 0.63 0.0344 0.62 0.5032 0.604 1.1252 -0.002 0.0982 -0.004 0.2 -0.004 0.3048 -0.032 5.4284 -0.066 10.7604 -0.1 15.989 6.476 -5.8872 11.786 -10.733 16.174 -14.7306Zm26.772 216.304c-17.874 2.916 -339.432 -4.364 -339.746 -4.384 -15.03996 -0.892 -14.14996 -3.134 -5.3 -11.8 8.8936 -8.702 13.881 -13.172 18.998 -17.758l0.0002 0c2.3788 -2.132 4.7856 -4.288 7.6258 -6.906 2.4114 -2.224 3.8006 -3.614 4.6602 -4.474 0.9766 -0.978 1.2692 -1.272 1.5996 -1.322 0.1414 -0.022 0.2896 0 0.5014 0.03 0.0534 0.008 0.1106 0.016 0.1728 0.026 14.156 1.936 270.016 3.876 276.572 3.906 0.556 0.002 1 -0.008 1.362 -0.016 1.418 -0.034 1.606 -0.038 2.482 0.88 4.638 4.854 7.2 7.194 10.434 10.146 1.818 1.66 3.85 3.514 6.58 6.118 1.998 1.904 3.846 3.658 5.546 5.27l0.002 0c17.984 17.058 19.498 18.492 8.51 20.284Z" clip-rule="evenodd" stroke-width="2"></path></g><g id="paper"><path id="vector_2" fill="#000000" d="M107.0422 271.256c-1.6 -2.686 -3.6 -147.8618 -0.68 -232.1338 0.04 -1.18 0.93 -1.634 2.526 -1.834 10.502 -1.312 138.5658 -4.944 182.3858 -0.63 0.34 0.0288 0.66 0.1748 0.904 0.4128 0.246 0.2382 0.4 0.5538 0.438 0.8932 0.258 1.5206 0.402 3.058 0.432 4.6 0.084 33.414 1.326 82.116 1.344 86.09 0.132 31.922 -1.624 76.3258 -1.244 86.2778 0.014 0.35 0.968 56.836 0.776 57.308 -0.11 0.322 -0.294 0.614 -0.536 0.85 -0.244 0.238 -0.54 0.414 -0.864 0.516 -3.178 1 -3.58 0.8 -18.478 0.8 0.006 -0.436 -164.8458 0.45 -167.0038 -3.15Zm3.182 -232.0938c-0.736 0 -1.38 -0.132 -1.376 0.526 0.254 41.85 -0.962 94.066 -0.282 122.256 0.018 0.708 0.73 87.0318 0.672 100.6718 -0.028 6.376 -0.712 6 0.936 6.24l79.918 1.666c99.7618 0.312 91.5558 2.17 100.9718 1.442 1.122 -0.086 -2.342 -39.666 -0.938 -93.1418 1.282 -48.898 -0.174 -105.2 0.254 -138.766 0.012 -1.052 0.068 -0.934 -1.612 -0.926 -0.044 0 -49.496 -0.852 -178.5438 0.032Z" stroke-width="2"></path><path id="vector_3" fill="#000000" d="M179.5882 99.95c-0.21 5.124 0 5.55 -1.6 5.646 -6.978 0.414 -46.542 -0.142 -52.224 -0.242 -1.76 -0.03 -3.6 -0.68 -3.788 -2.436 -0.484 -4.336 -0.122 -36.818 0.058 -42.922 0.174 -5.826 0 -5.88 0.9 -6.91 1 -1.144 30.83 -1.816 41.446 -1.444l12.77 0.444c1.488 0.05 2.046 1.4 2.218 2.9 1.254 10.964 0.33 42.26 0.22 44.964Zm-55.478 -8.492c2.8722 -2.9236 6.0044 -5.58 9.358 -7.936 0.2004 -0.1726 0.4474 -0.2818 0.71 -0.3134 0.2624 -0.0318 0.5284 0.0154 0.764 0.1354 1.528 0.756 2.6 0.578 12.226 7.4 0.89 0.63 0.272 0.328 4.474 -3.498 2.098 -1.91 6.48 -5.746 8.754 -7.498 6.148 -4.734 5.726 -4.46 7.2 -3.504 3.958 2.56 8.776 8.146 10.142 9.122 0.686 -1.6 -0.414 -25.516 -0.09 -31.62 0.032 -0.6 3.834 -0.45 -53.472 0.4 0.006 0.032 -0.202 36.378 -0.066 37.312Z" stroke-width="2"></path><path id="vector_4" fill="#000000" d="M189 130.7504c-66.6 0.122 -65.286 -0.728 -66.5 -2.732 -0.2232 -0.5626 -0.229 -1.1882 -0.016 -1.7546 0.213 -0.5666 0.6294 -1.0334 1.168 -1.3094 3.81 -1.352 86.528 0.132 97.904 0.872 14.154 0.92 14.28 1 14.264 2.764 -0.024 2.368 -2.6 1.34 -19.274 2.014 -9.19 0.372 -18.376 0.128 -27.546 0.146Z" stroke-width="2"></path><path id="vector_5" fill="#000000" d="M127.118 171.016c-1.938 -0.338 -3.4 -0.94 -3.436 -1.96 -0.2 -5.096 4 -2.836 69.86 -3.622 14.916 -0.178 35.624 -0.696 41.082 0.054 0.384 0.1428 0.724 0.3824 0.988 0.6954 0.264 0.3132 0.444 0.6892 0.52 1.0916 0.074 0.4026 0.046 0.8178 -0.086 1.2056 -0.132 0.3878 -0.362 0.7348 -0.668 1.0074 -1.578 1.362 -99.494 3.052 -108.26 1.528Z" stroke-width="2"></path><path id="vector_6" fill="#000000" d="M138.5822 238.328c-4.63 -0.176 -16.474 1.044 -14.972 -3.688 0.6 -1.888 2.618 -2.248 4.612 -2.278 6.43 -0.102 73.0178 -0.928 89.2618 1.892 1.748 0.302 2.886 1.47 1.738 2.886 -1.524 1.882 -3.638 1.366 -7.578 1.774 -5.178 0.536 -35.9038 0.836 -73.0618 -0.586Z" stroke-width="2"></path><path id="vector_7" fill="#000000" d="M141.7262 192.6484c-14 -0.23 -17.856 -0.448 -18.038 -2.454 -0.336 -3.708 3.09 -3.16 24.328 -3.558 10.384 -0.2 41.782 0.048 53.5498 0.74 15.22 0.892 14.622 1 15.148 2.478 0.414 1.16 -1.272 2.056 -2.138 2.114 -29.9578 2.002 -76.0758 0.632 -72.8498 0.68Z" stroke-width="2"></path><path id="vector_8" fill="#000000" d="M124.032 213.184c-1.184 -0.6 -0.702 -3.566 1.498 -3.836 8.124 -1 44.714 -0.266 53.354 -0.032 19.142 0.52 22.304 0.818 21.156 3.962 -0.25 0.686 -0.88 0.858 -1.538 0.958 -5.578 0.85 -21.9 0.918 -36.422 0.722 -11.68 -0.158 -33.978 0.242 -38.048 -1.774Z" stroke-width="2"></path><path id="vector_9" fill="#000000" d="M128.0482 144.9998c13.302 -0.33 59.268 0.344 69.456 0.668 6.2978 0.2 9.0878 0.758 9.6418 2.51 0.322 1.016 -0.018 2.458 -4.742 2.712 -2.5458 0.138 -68.9998 -0.12 -74.8538 -0.462 -5.068 -0.302 -5.522 -5.284 0.498 -5.428Z" stroke-width="2"></path><path id="vector_10" fill="#000000" d="M209.984 84.9196c3.558 -2.886 42.136 -1.134 57.942 1.152 1.374 0.2 1.356 1.748 0.28 2.364 -1.756 1 -3.652 0.8 -9.266 0.8 0 -0.336 -54.74 0.376 -48.956 -4.316Z" stroke-width="2"></path><path id="vector_11" fill="#000000" d="M209.2 57.7138c-2.756 -0.768 -2.07 -3.2 3.316 -3.6 8.89 -0.66 43.492 -0.566 48.276 0.25 1.044 0.178 2.136 1.034 1.83 2 -0.552 1.738 -1.222 1.676 -14.65 2.31 -7.67 0.358 -31.394 1.098 -38.772 -0.96Z" stroke-width="2"></path><path id="vector_12" fill="#000000" d="M254.334 101.0616c1.412 0.172 2.306 1.774 1.176 2.758 -2.95 2.57 -31.564 0.692 -31.6 0.69 -5.63 -0.132 -18.312 -1.444 -13.374 -4.152 1.664 -0.6866 3.442 -1.0622 5.242 -1.108 12.878 -0.2666 25.76 0.3388 38.556 1.812Z" stroke-width="2"></path><path id="vector_13" fill="#000000" d="M210.25 71.9998c-2.514 -0.52 -2.818 -2.366 -1.514 -3.282 3.432 -2.4 26 -0.774 30.172 -0.322 5.064 0.55 3.352 3.138 1.862 3.358 -9.524 1.41 -25.7 1.246 -30.52 0.246Z" stroke-width="2"></path><path id="vector_14" fill="#000000" d="M152.2002 66.2462c0.007 1.2054 -0.2246 2.4002 -0.6818 3.5154 -0.4572 1.1154 -1.1308 2.129 -1.982 2.9826 -0.851 0.8534 -1.8628 1.53 -2.9768 1.9904 -1.114 0.4602 -2.3082 0.6954 -3.5134 0.6916 -2.3794 -0.026 -4.6582 -0.9634 -6.367 -2.619 -1.709 -1.6558 -2.7178 -3.9038 -2.819 -6.281 0.756 -13.11 18.822 -11.29 18.34 -0.28Zm-2.034 0.182c0.0372 -1.9558 -0.6976 -3.8476 -2.0452 -5.2658 -1.3476 -1.418 -3.1996 -2.248 -5.1548 -2.3102 -1.9332 0.0124 -3.7838 0.785 -5.1518 2.1508 -1.368 1.3658 -2.1436 3.215 -2.159 5.148 -0.0156 1.9332 0.7302 3.7946 2.0762 5.1822s3.1838 2.1896 5.1166 2.233c0.9524 0.026 1.9006 -0.1396 2.7878 -0.487 0.8874 -0.3472 1.696 -0.8692 2.3776 -1.535 0.6818 -0.6658 1.223 -1.4616 1.5914 -2.3404 0.3682 -0.8788 0.5564 -1.8226 0.5532 -2.7756h0.008Z" stroke-width="2"></path></g><g id="pencil"><path id="vector_15" fill="#000000" d="M387.708 123.0374c-1.348 -3.1718 -3.772 -5.7658 -6.846 -7.324 -3.074 -1.558 -6.6 -1.9802 -9.954 -1.192 -7.91 2.334 -3.122 -0.054 -73.448 63.25 -31.318 28.2006 -48.94 40.6946 -54.28 52.2426 -0.958 2.07 -1.26 4.864 -1.65 5.31 -5.908 6.764 -6.124 6.49 -4.574 8.568 1.948 2.614 7.772 -3.536 9.972 -3.504 10.62 0.152 22.954 -10.738 47.732 -30.51 96.036 -76.6326 92.584 -66.7786 94.472 -80.0966 0.002 -2.3228 -0.484 -4.6202 -1.424 -6.744Zm-139.152 115.1866c-2.58 0.67 -4.688 -2.232 -4.6 -3.852 0.94 -2.956 2.5 -5.678 4.576 -7.982 1.664 3.684 1.288 5.364 7.496 8.89 -2.33 1.346 -4.848 2.338 -7.472 2.944Zm63.914 -47.6726c-39.54 31.2666 -51.8 45.3846 -56.23 42.5266 -2.938 -1.894 -5.058 -4.82 -5.946 -8.2 1.944 -4.648 13.728 -13.138 42.704 -37.9066 22.154 -18.938 24.184 -21.6 27.106 -23.712 0.214 0.2 1.25 9.722 10.524 12.616 0.626 0.196 1.982 -1.248 -18.158 14.676Zm24.302 -18.91c-3.2 2.476 -3.226 2.564 -3.658 2.424 -7.484 -2.448 -11.664 -12.154 -10.364 -13.378 3.124 -2.948 3.176 -3.068 3.23 -2.516 0.31 3.092 3.252 7.274 5.45 9.4 4.77 4.628 6.336 3.3 5.342 4.07Zm39.55 -36.782c-4.022 -2.162 -4.26 -7.962 -7.6 -10.446 -1 -0.736 -2.308 0.414 -1.4 1.68 3.03 4.24 2.6 10.752 11.872 13.56 1.434 0.434 -3.502 2.69 -39.136 29.57 -1.842 1.388 -8.492 -5.578 -11 -10.534 -0.354 -0.7 -0.582 -1.466 -0.908 -2.178 -0.4 -0.89 -0.35 -0.358 35.456 -34.384 7.304 -5.132 14.108 -8.332 20.248 -0.2 3.764 4.972 3.674 18.962 -7.532 12.932Zm11.386 -11.822c-1.348 -3.1718 -3.772 -5.7658 -6.846 -7.324 -3.074 -1.558 -6.6 -1.9802 -9.954 -1.192 -7.91 2.334 -3.122 -0.054 -73.448 63.25 -31.318 28.2006 -48.94 40.6946 -54.28 52.2426 -0.958 2.07 -1.26 4.864 -1.65 5.31 -5.908 6.764 -6.124 6.49 -4.574 8.568 1.948 2.614 7.772 -3.536 9.972 -3.504 10.62 0.152 22.954 -10.738 47.732 -30.51 96.036 -76.6326 92.584 -66.7786 94.472 -80.0966 0.002 -2.3228 -0.484 -4.6202 -1.424 -6.744Zm-139.152 115.1866c-2.58 0.67 -4.688 -2.232 -4.6 -3.852 0.94 -2.956 2.5 -5.678 4.576 -7.982 1.664 3.684 1.288 5.364 7.496 8.89 -2.33 1.346 -4.848 2.338 -7.472 2.944Zm63.914 -47.6726c-39.54 31.2666 -51.8 45.3846 -56.23 42.5266 -2.938 -1.894 -5.058 -4.82 -5.946 -8.2 1.944 -4.648 13.728 -13.138 42.704 -37.9066 22.154 -18.938 24.184 -21.6 27.106 -23.712 0.214 0.2 1.25 9.722 10.524 12.616 0.626 0.196 1.982 -1.248 -18.158 14.676Zm24.302 -18.91c-3.2 2.476 -3.226 2.564 -3.658 2.424 -7.484 -2.448 -11.664 -12.154 -10.364 -13.378 3.124 -2.948 3.176 -3.068 3.23 -2.516 0.31 3.092 3.252 7.274 5.45 9.4 4.77 4.628 6.336 3.3 5.342 4.07Zm39.55 -36.782c-4.022 -2.162 -4.26 -7.962 -7.6 -10.446 -1 -0.736 -2.308 0.414 -1.4 1.68 3.03 4.24 2.6 10.752 11.872 13.56 1.434 0.434 -3.502 2.69 -39.136 29.57 -1.842 1.388 -8.492 -5.578 -11 -10.534 -0.354 -0.7 -0.582 -1.466 -0.908 -2.178 -0.4 -0.89 -0.35 -0.358 35.456 -34.384 7.304 -5.132 14.108 -8.332 20.248 -0.2 3.764 4.972 3.674 18.962 -7.532 12.932Z" stroke-width="2"></path></g></g></svg>