<svg xmlns="http://www.w3.org/2000/svg" viewBox="0 0 400 400" height="400" width="400"><g fill="#000000"><path d="M298.76 175.78a13.24 13.24 0 0 0 5.54 1.36 0.82 0.82 0 0 0 0.72 -0.92c-0.16 -1.26 -1.58 -0.18 -5.52 -2l0.2 -1.48c0.1 -0.42 -0.4 -1.1 -0.94 -0.9s-0.68 0.84 -0.84 2 -0.24 1.4 0.84 1.94zM90 181.46a19.66 19.66 0 0 0 6.66 -3.26c0.78 -0.6 0.52 -2 0.3 -2.8a0.88 0.88 0 0 0 -1.72 0.32 6.66 6.66 0 0 0 0.24 1.28c-4.74 3.46 -6.58 2.6 -6.3 4a0.74 0.74 0 0 0 0.82 0.46zm-5.44 -3.7c4 0 2.64 -2.36 1.56 -2l-1.54 0.24c-1.32 -6.26 -0.26 -7.58 -1.4 -7.62a0.66 0.66 0 0 0 -0.7 0.6 28.52 28.52 0 0 0 0.54 7.38c0.22 1.08 0.62 1.4 1.54 1.4zm116.14 -3.44c1.14 0 7.14 -1.3 8.16 -1.46 1.5 -0.26 3.28 -0.72 3.4 -2.34 0 -1 -0.72 -2.16 -1.54 -1.56a0.94 0.94 0 0 0 -0.34 1.1c0.3 0.78 -0.34 0.72 -10 2.82a0.74 0.74 0 0 0 0.32 1.44zM69.16 125.36c0.44 0.5 1.52 0 1.2 -0.76 -2 -4.88 -5.68 -10.32 -8 -15.68 -0.36 -0.86 -1.08 -2.32 -1.78 -2.4a0.48 0.48 0 0 0 -0.46 0.2c-0.44 0.6 0.2 2.26 0.5 2.96 0.92 1.98 5.38 12.06 8.54 15.68zM134 116.92a0.92 0.92 0 0 0 1.52 0.46A34.3 34.3 0 0 0 140 112.42c6 19.2 6 19.88 6.94 19.88a0.94 0.94 0 0 0 0.9 -1.1c-2.24 -7.08 -4.6 -14 -6.64 -21.06a0.92 0.92 0 0 0 -1.68 -0.24 29.58 29.58 0 0 1 -4 5c-1.2 -5.48 -4 -18 -4 -18a0.78 0.78 0 0 0 -1.52 0.38c0.68 3.1 3.58 18.26 4 19.64zm-104.18 104.04c-6.44 -3.08 -12.18 -6.24 -18.78 -9.72 -1.28 -0.68 -2.16 1.66 -0.16 2.2a91.62 91.62 0 0 0 18.32 8.78c0.8 0.22 1.36 -0.82 0.62 -1.26zm5.12 -46.18a0.9 0.9 0 0 0 1.02 0.12c1.32 -0.64 -0.38 -2.22 0.26 -11.72 16.22 19.58 15.32 19.08 16 19.08a0.74 0.74 0 0 0 0.64 -1.18c-2.54 -3.2 -13.66 -17.02 -16.62 -20.78a0.94 0.94 0 0 0 -1.66 0.4 59.44 59.44 0 0 0 -0.2 11c-6 -5.38 -11.74 -11.08 -17.8 -16.32a1 1 0 0 0 -1.48 1.3c2.36 3.66 15.68 14.32 19.84 18.1zM192.7 100.6a0.74 0.74 0 0 0 1.48 0 124.66 124.66 0 0 0 -0.92 -22 1 1 0 0 0 -1.74 -0.56c-0.9 1.16 1.26 4.82 1.18 22.56zm54.12 34.74c15.22 -25.68 14.4 -24.4 14.28 -24.86 -0.34 -1.16 -1.3 -0.6 -9 1.72 2 -7.1 4.5 -14.68 6.16 -21.86a0.94 0.94 0 0 0 -1.82 -0.44c-2.26 8 -4.5 15.82 -6.66 23.5a0.96 0.96 0 0 0 1.16 1.14s5.3 -1.64 7.44 -2.34l-12.78 22.46a0.7 0.7 0 0 0 1.22 0.68zM389.82 194c-1.04 -0.5 -20.28 11.46 -20.48 11.6 -0.7 0.5 0 1.74 0.72 1.36 1.16 -0.52 19.54 -10.74 20.16 -11.84a0.84 0.84 0 0 0 -0.4 -1.12zm-50.92 -22.86s19.28 -14.7 22.88 -17.5c0.78 -0.62 0 -2 -0.92 -1.9a61.38 61.38 0 0 0 -10.8 1.22 108.14 108.14 0 0 0 13.64 -18c0.66 -1.08 -0.94 -2.2 -1.58 -1.1a106.62 106.62 0 0 1 -15.62 19.78c-0.64 0.62 -0.24 2.14 0.8 2a65.34 65.34 0 0 1 10.76 -1.8s-15.28 12.3 -20 16.2a0.74 0.74 0 0 0 0.84 1.1zm-27.58 -57.9c12.28 -21.16 14.42 -24.24 12.36 -24.76 -0.88 -0.22 -0.84 -0.14 -13.74 24a0.8 0.8 0 0 0 1.38 0.76z" stroke-width="2"></path><path d="M368 243.78c-8.16 -25.74 -28.78 -45.54 -56.62 -54.3a11.2 11.2 0 0 0 -0.16 -1.52c7.6 -3.32 9.3 -14.74 7.62 -24.68 1.46 -2.38 5.34 -14.62 2.48 -12.94l-5.22 3.08c-0.74 -2 -1.6 -3.86 -2.52 -5.7 0.2 -3.2 -2.72 -8.92 -7.86 -12.66 -4.72 -3.44 -12.84 -6.52 -24.68 -1.6 -9.24 3.84 -19.66 12.32 -21.24 24.64 -2 16 3.3 23.76 -6.6 38.62a112.72 112.72 0 0 0 -34.54 -9.4 19.88 19.88 0 0 0 -0.18 -2.68c5.1 -2.58 6.18 -10.98 6.4 -13.72 6 -5.2 6.7 -15.56 2 -15.8a112.74 112.74 0 0 0 1.38 -22.46c-0.26 -4.66 -2.26 -5.7 -3.18 -5.9a3.52 3.52 0 0 0 -3.48 1.36c-1.5 -3.06 -4.38 -2.68 -6 -0.36a4 4 0 0 0 -7.52 -1 4.6 4.6 0 0 0 -8.5 0.42c-2 -4.34 -7.1 -3.34 -8.24 1.06 -1.5 -3.38 -5.6 -3.36 -7.02 0.56 -3.74 -2.76 -6.68 0 -7.28 4.54A130.86 130.86 0 0 0 178 156.46c-6.78 -1.52 -1.5 14.36 2.54 14.74 0.7 6 3.18 12.6 8 14.2 0 0.8 -0.12 1.62 -0.12 2.42a107.4 107.4 0 0 0 -36.72 13.02c-6.24 -4.4 -20.12 -10.38 -33.46 -9.28a73.32 73.32 0 0 1 -5.42 -16c-0.88 -4.82 1.38 -6.72 1.36 -10.88a24.5 24.5 0 0 0 1.82 -16.84c-6.3 -20 -44.36 -12.4 -43.28 9.56 0.14 2.5 0.36 5 0.58 6.94 -4.7 1.42 -4 1.76 -2.7 7.48 0.7 3.12 1.5 5.7 4.78 5.02 1.5 6.5 5.28 16.88 14.2 16.88 0.54 0 0 -0.34 0.5 3.02 -22.38 9.74 -50.48 28 -57.76 60 -1.76 7.72 -2.82 18.68 2.22 26.96 5.54 9.22 15.34 9.8 22.38 9.34a112.5 112.5 0 0 0 -1.58 27.46 0.7 0.7 0 0 0 1.12 0.54c1.08 -0.64 -1.04 -1.32 2.34 -28.14 18.84 -1.74 36.8 -9.84 53.4 -18.36 2.74 2 5.46 4 8.28 5.8a28.76 28.76 0 0 0 25 16 213.24 213.24 0 0 0 0 25.28 0.76 0.76 0 0 0 0.84 0.7c1.72 -0.16 -0.5 -1.02 0.86 -26 16.64 0 30.3 -10.86 44 -19.16 16.12 7.38 55.64 21.12 76.54 17.16 0.96 8.52 0.82 16.6 1.64 24.84a0.64 0.64 0 0 0 1.26 0 123.1 123.1 0 0 0 -1.02 -25.22c14.5 -3.44 23.4 -13.66 25.76 -29.54 0.96 -0.64 2 -1.36 3.08 -2.18 12.38 4.94 38 16.96 50.52 17.4 -0.58 9.3 -1.4 19.12 -1.54 28.76a0.7 0.7 0 0 0 1.38 0c0.28 -2.66 2.1 -25.36 2 -28.82 20.04 -0.46 23.2 -16.86 17.2 -35.78zm-142.72 -85.48c0.54 -0.72 0.84 -1.56 1.62 -1.32 2.8 0.82 0.56 7.78 -1.78 10.88 0.2 -3.18 0.26 -6.4 0.16 -9.56zm-47.74 0c0.64 0 0.56 0.28 2 0.56l0.8 9.88c-2.96 -2.74 -5.1 -10.4 -2.8 -10.4zm138.96 -2a1.1 1.1 0 0 1 2.12 0.64c-0.7 2.48 -1.24 4.28 -1.7 6a1.58 1.58 0 0 1 -1.16 0.8c-1.76 0.06 0.12 -5.64 0.74 -7.48zm-33.66 8c1.14 -0.86 2.52 0.24 2.74 0.26 1.88 1.2 4 -0.54 3.46 -1.04l-0.4 -0.32c-1.48 -1.16 -4.52 -3.56 -3.88 -5.2 0.48 -1.24 2.44 -1.06 3.72 -1.12a0.3 0.3 0 0 0 0.28 -0.38c-0.2 -0.64 -0.44 -1.28 -0.68 -2a57.78 57.78 0 0 1 24.28 -6c0.86 2 1.6 3.9 2.26 5.78 -2.5 1.42 -5.34 2.98 -6 5.82a4 4 0 0 0 -3.28 1.1c-3.14 -3.78 -16.14 -3.46 -18.76 -3.36 -3.38 0.14 5.54 6.96 8 8.88 8.26 6.42 13.66 2 11.6 -3.86a2.52 2.52 0 0 1 2.44 -0.88 4.74 4.74 0 0 0 0.36 1.1 0.72 0.72 0 0 0 -0.64 0c-0.82 0.52 0 1.22 1.88 4.56a7.6 7.6 0 0 1 -0.74 0.66c-0.76 0.56 -0.1 3 2.44 0 0.38 -0.46 -0.34 -1.8 -1.14 -2.98a5.26 5.26 0 0 0 6.44 -0.4 32.32 32.32 0 0 1 -1.44 16c-2 4.9 -7.02 5.18 -6 7.04a81.58 81.58 0 0 1 -1.6 19.66c-5.14 -1.12 -15.26 -13.66 -19.3 -19.48a34.2 34.2 0 0 0 -1.84 -14.36c-1.34 -2.32 -4 -3.38 -4.7 -6a3.34 3.34 0 0 1 0.5 -3.6zm30.32 -3.34c-0.22 0.66 -0.36 1.58 -1.08 1.58s-1.08 -0.84 -1 -1.56 0.28 -2.38 1.04 -2.82a1.06 1.06 0 0 1 0.94 0c0.94 0.26 0.44 1.66 0.1 2.68zm-10.78 4.6c-0.22 0.54 -0.44 1.52 -1.08 1.82a0.82 0.82 0 0 1 -0.72 0c-1.2 -0.44 0.12 -4.9 1.2 -5.76a0.8 0.8 0 0 1 1.32 0.28c0.42 0.92 -0.6 3.24 -0.72 3.54zm-4.38 -1.94c-0.26 0.52 -0.38 1 -1.06 1a0.98 0.98 0 0 1 -1 -1.28c0.22 -0.66 0.46 -2.16 1.26 -2.56a1.02 1.02 0 0 1 1.38 0.56c0.28 0.66 -0.18 1.56 -0.58 2.28zm-10 25.64c5.68 9.8 20.64 24 21.8 19.24a70.36 70.36 0 0 0 1.8 -17.24c27.4 9.68 46 27.42 54.1 51.36a41.16 41.16 0 0 0 -18.8 -4c-0.28 -6.58 -9.3 -19.3 -12.76 -23.12 -0.7 -0.78 -2 0.22 -1.24 1a59.22 59.22 0 0 1 11.68 20.14c-9.8 -7.38 -29.54 -17.68 -56.6 -9.2a74 74 0 0 0 -29.58 -28.18 62.32 62.32 0 0 1 29.6 -10zM183.7 144.14a78.3 78.3 0 0 1 36.86 -1.06 55.34 55.34 0 0 0 0.32 10.16h-0.36c-1.66 -7.64 -12.3 -10 -15.88 -2a8.78 8.78 0 0 0 -5.64 0c-3.46 -7.2 -13.48 -4.88 -15.32 2.24h-0.38a50.74 50.74 0 0 0 0.4 -9.34zm27.2 16.46c0.36 -1.02 3.6 -8.58 5.7 -8.8a1.1 1.1 0 0 1 1.06 1.44 61.86 61.86 0 0 0 -4.76 8c-0.5 1.24 -2.46 0.76 -2 -0.64zM208 157.8c-0.24 0.6 -1.32 0.96 -1.7 0.26s0.54 -3.36 3.14 -7.26c0.66 -0.98 1.28 -1.46 1.82 -1.38a1.12 1.12 0 0 1 0.58 1.76A34.42 34.42 0 0 0 208 157.8zm-17.4 3.32c0.86 -1.88 1.82 -3.78 2.74 -5.64a1.14 1.14 0 0 1 2 0 1.16 1.16 0 0 1 0 1.28c-0.88 1.74 -1.78 3.56 -2.74 5.32 -0.76 1 -2.6 0.24 -2 -0.96zm-2.42 -2.52 -0.12 0.14c-0.62 0.9 -2.18 0.32 -1.76 -0.82a46.8 46.8 0 0 1 4.4 -8.78c0.86 -1.04 2.6 -0.14 2 1.08 -1.42 2.84 -3.16 5.5 -4.52 8.38zm-7.14 0.18c1.28 -0.54 1.64 -2 2 -3.26l0.42 -0.12A10.56 10.56 0 0 0 186 163.1a8.16 8.16 0 0 0 13.8 -4.7 46.74 46.74 0 0 0 -0.26 5.8c0 1.2 -0.28 2.7 1.2 2.8h2c1.04 0 1.32 -1.8 0.12 -1.82h-1.48a61.38 61.38 0 0 1 0.58 -10.66c0.14 -0.98 -1.28 -1.12 -1.48 -0.2 -0.88 4.3 0 1.84 -0.78 -1.34a6.4 6.4 0 0 1 4.32 0 11.48 11.48 0 0 0 1.58 9.5 8.14 8.14 0 0 0 12.28 0.7 11.46 11.46 0 0 0 2.92 -8h0.38c0.24 1.74 0.6 4.14 2.44 4 -0.2 6.84 0.4 18.56 -5.02 22.84 -0.7 0.56 -1.5 1.2 -1.6 1.84a27.2 27.2 0 0 0 0 6.38c0.58 5.54 -9.12 16.5 -14.14 21.18 -9.68 -13.16 -12.46 -14.46 -12.44 -26 0 -1.16 -0.14 -1.34 -0.94 -1.74 -8.1 -3.92 -7.36 -15.22 -8.44 -24.9zm7.48 30.8c0.22 6.14 5.04 14.44 13.54 23.38 1.72 2.24 16.92 -16.42 16.62 -20.46v-3.38c40.94 4.82 70.28 28.38 74.96 60.14 -17 -3.34 -38.48 0.58 -42.12 1.28a108.2 108.2 0 0 0 -8.74 -28.76 0.72 0.72 0 0 0 -1.34 0.54 133.8 133.8 0 0 1 8 28c-10.52 -11.08 -26.52 -16 -48.82 -15a212.3 212.3 0 0 0 -39.82 5.66 38.78 38.78 0 0 1 7.26 -16.8 0.7 0.7 0 0 0 -1.12 -0.82 38 38 0 0 0 -8 18 206.88 206.88 0 0 0 -42 15.02c1.84 -39.18 38.06 -60.18 71.58 -66.8zM101.78 152.54a40.34 40.34 0 0 0 0.34 5.68c-7.2 0.18 -18.64 2.98 -27.16 5.62 -0.22 -1.76 -0.72 -4.96 -0.74 -6.86a49.64 49.64 0 0 1 27.56 -4.44zm-6.36 10.74c-4 6.8 -3.14 8 -4.48 8a0.94 0.94 0 0 1 -0.96 -1.2c1.82 -6.88 3.56 -8.16 4.44 -8.32a0.98 0.98 0 0 1 1 1.52zm-6.18 1.5c-0.74 1.22 -0.92 2.92 -2 2.66s-0.3 -2.7 0.34 -4 1.2 -1.32 1.58 -1.22a1.06 1.06 0 0 1 0.78 0.96 3.16 3.16 0 0 1 -0.7 1.6zm-14.88 4c-0.22 0.52 -0.24 2.12 -1.32 2.12a0.94 0.94 0 0 1 -0.94 -0.68 5.38 5.38 0 0 1 1.24 -3.86 1.18 1.18 0 0 1 1.38 -0.14c0.48 0.32 0.38 1.16 -0.36 2.5zm0.74 4.66c1.82 -6.54 2.86 -7.5 3.48 -7.64a0.7 0.7 0 0 1 0.7 0.24 1.58 1.58 0 0 1 0.38 1.14L77.02 174a1 1 0 0 1 -1.92 -0.62zm2 3.02c3.84 -1.12 5.08 -0.8 4.66 -6.64 -0.14 -1.66 -0.46 -5.44 1.22 -5.38 1.36 0 1.4 6.32 3.42 8.28s4.64 0.58 6.84 0c6 -1.64 4.68 -4.2 4.24 -12.14l5.04 -0.4c2.26 11.72 5.3 2.94 7.34 1.62 1.3 -0.82 2.42 0.98 2.66 2.36 0.46 2.96 -2 6.2 -1.48 10.54a71.28 71.28 0 0 0 6 18.12c-4.38 8.32 -16.96 16 -22.56 19.04 -2.36 -8.56 -2.56 -19.8 -4 -19.76 -6.64 0.04 -11 -4.98 -13.46 -15.7zm13.16 22.2c0.36 3.02 1.84 16 4 14.92 5.44 -2.56 22 -13.44 24.36 -20.44 3.5 0.8 14.42 -1.32 31.38 8.9a74.38 74.38 0 0 0 -28.88 31.6c-16.18 -2 -36.2 -4.5 -53.02 4.38 5.14 -12.12 8.22 -13.32 6.76 -14.28a0.68 0.68 0 0 0 -0.96 0.2c-0.52 0.78 -7.82 12.84 -8 15.3 -2.82 1.72 -8.84 6.12 -10.64 9.58a39.3 39.3 0 0 0 -20.68 6.36c6.08 -23.54 25.3 -43.08 55.6 -56.58zM38.4 286c-7.64 -8 -6 -21.38 -4.42 -28.72 19.52 -12.82 45.32 -7.34 76.72 16.32 -10.56 4.52 -56.7 28.58 -72.3 12.4zm18.88 -37.22c15.88 -17.58 38.84 -16.46 63.02 -13.48 -6.2 14.3 -6.74 29.4 -1.56 41.72 -18 -13.48 -39.26 -28.3 -61.46 -28.3zm89.76 46c-19.7 0 -30.28 -17.3 -30 -36.5 28 -12.58 52.46 -19.02 79.26 -20.88 24.48 -1.7 40.96 2.76 51.76 14 -52.76 11.82 -74.54 43.32 -101.02 43.32zm120.96 -2.2c-19.58 4.42 -52 -7.14 -75.04 -16.36 36.72 -21.68 69.76 -29.86 100.94 -25 2.46 22.34 -6.74 37.02 -25.9 41.36zm27.74 -30.28a58.2 58.2 0 0 0 -7.02 -33.34c21.48 -5.56 39.62 -2.32 55.38 9.88 -20.7 1.54 -41.56 17.7 -48.38 23.46zm54.4 15.54c-12.24 0 -38 -12 -49.86 -16.84 12.68 -9.6 27.7 -19.78 45.78 -20.5a38 38 0 0 1 20.34 4.46c5.36 18.08 2.68 32.76 -16.28 32.88z" stroke-width="2"></path></g></svg>