<svg xmlns="http://www.w3.org/2000/svg" viewBox="0 0 400 400" height="400" width="400"><g fill="#000000"><path d="M189.26 73.14c1.16 3.06 2.3 6.22 3.56 9.12 0.48 1.12 2 1.32 1.08 -0.38 -2.38 -4.92 -5.08 -13.08 -7.1 -18.46 3.1 -0.76 6 -0.72 7.5 2.82a6.44 6.44 0 0 1 -1.8 7.64c-0.94 0.6 9.16 4.72 10.38 5.32a0.54 0.54 0 0 0 0.44 -1 93.02 93.02 0 0 0 -9.44 -4.2c3.8 -4.22 2 -11.24 -3.08 -12 -0.94 -0.12 -5.02 -0.2 -4.74 1.3a62.8 62.8 0 0 0 3.2 9.84zm16.18 0.26c0.2 0.28 0.7 0 0.6 -0.28 -0.86 -2.78 -5.84 -12.6 -7.5 -16 -0.94 -2 -1.84 -0.82 -1.32 0 2.3 3.42 6.04 13.12 8.22 16.28zm2.82 3.58c-0.62 -1.4 -2 -0.18 -1.54 0.76s1.94 0.26 1.54 -0.76zm-86.94 101.6c-0.64 0.16 -1.3 0.34 -2 0.46s-0.98 1.4 1.64 0.56 0.14 -2.22 -2.18 -8.86c-0.18 -0.56 -1.52 -1.02 1.14 5.08 0.46 0.94 0.94 1.84 1.4 2.76zm-10.6 -6.82c-0.66 0.12 -0.24 2 0.12 2.38 1.16 1.28 0.88 -2.56 -0.12 -2.38zm12.84 -1.76c-0.76 -0.72 -0.76 1.28 -0.26 1.86s1.1 -1.02 0.26 -1.86zm-14.72 -5.16c1.58 -1.04 2.2 -0.24 2.54 -0.64 1.22 -1.4 -4 -1.4 -4.52 2.44a0.28 0.28 0 0 0 0.56 0.12 3.28 3.28 0 0 1 1.42 -1.92zm12.4 -0.84c2.34 -0.66 3.62 1.16 4 0.88s-2 -2.48 -4.26 -2a0.54 0.54 0 0 0 0.26 1.04zm-4.9 23.14a0.26 0.26 0 0 0 0 -0.3 0.28 0.28 0 0 0 -0.36 0c-2 2.84 -7.26 2.5 -7.44 -4.24a7.76 7.76 0 0 0 8 2.7c0.56 -0.12 0.36 -0.96 -0.22 -0.88 -6 0.86 -7.2 -2.62 -8 -2.92 -0.32 -0.12 -0.76 0 -0.76 0.34 -0.18 8.74 6.74 9.12 8.78 5.3zm2.18 33.3c-0.12 2.3 -2.28 3.44 -4.3 4 0.98 2.62 2.26 7.18 4.44 9.16 2.92 2.64 13.76 7.4 13.34 4.9a24.7 24.7 0 0 0 -13.48 -18.06zm-5.3 4.18a4.5 4.5 0 0 1 -4.38 -1.7 23.08 23.08 0 0 0 -2.68 14.3c0.96 7.54 1.12 3.44 0.76 12.12 0 1.2 4.16 0.42 6.82 -3.6a28.54 28.54 0 0 0 4 -11.16 19.1 19.1 0 0 1 -4.5 -10zm-1.62 -1.56c1.7 0.54 5.36 -0.58 5.56 -2.64a5.4 5.4 0 0 0 -6 -5.2c-3.6 0.46 -3.82 6.46 0.44 7.84z" stroke-width="2"></path><path d="M205.84 231.8c-8.14 -26.22 -28.6 -44.18 -28.96 -44.86a36.92 36.92 0 0 0 -3.64 -11.88c0.64 -1.42 -4 -13.52 -6.46 -11.12 -0.9 0.9 0.16 4.62 0.4 6 -0.82 -1.72 -3.28 -6.16 -5.28 -6.78 -2.74 -0.88 0 6 0.3 7.02 -0.78 -1.32 -3.48 -6 -5.34 -5.06 -1.54 0.76 -0.16 3.08 0.3 4 0.68 1.46 6.12 11.16 3.42 12.26 -2.24 0.9 -5.62 -4.92 -7.4 -2.74 -2 2.5 6.16 12.3 9 13.32a83.36 83.36 0 0 0 -0.84 10.7 169.82 169.82 0 0 0 0.4 17.76c-6.4 -5.18 -25.68 -12.38 -33.64 -14.68a39.2 39.2 0 0 0 -10.52 -1.8c-0.12 -1.3 -0.24 -2.6 -0.38 -4a15.06 15.06 0 0 0 8.54 -3.52c4.9 -4.52 5.32 -11.62 4.84 -17.84a86.52 86.52 0 0 0 -4.18 -21.06c4.48 -0.7 9.12 -2 12.32 -5.38A14.38 14.38 0 0 0 138 131.84a14.74 14.74 0 0 0 -2.58 -1.84c-5.68 -3.38 -10.98 -2 -15.4 2.42 3.54 -11.12 -2.12 -18.96 -11 -13.8 -7.02 4.14 -9.02 13.8 -17.58 18.72 -1.66 -7.7 -9.84 -6.86 -10.36 -4.68 -0.6 2.62 5.14 1.24 8 5.76 -5.08 2 -14 1.14 -16 5.06 -2.24 4.78 4.52 7.7 9.3 8.12 -11.58 5.38 -5.8 14.2 -9.6 20.28 -2.2 3.5 -6 5.62 -8 9.22 -11.08 19.12 26.1 32 29.42 9.64a43.72 43.72 0 0 1 0.12 13.12c-20 3.26 -38 14 -52.46 28 -18.6 18 -37.5 45.4 -30.36 72.4 5.1 19.28 26 17.84 42 15.26a63.18 63.18 0 0 0 -0.16 21.34c-0.98 1.28 -4 13.58 -4.46 15.82 0 0.38 0.48 0.48 0.58 0.1 0.5 -1.66 4.16 -14.48 4.74 -14.9 4 7.34 33.44 11.2 51.6 11.84a140.36 140.36 0 0 0 56.2 -9.84c0 2.74 1.32 11.54 2.94 13.84 0.2 0.28 0.82 0.2 0.7 -0.18a93.2 93.2 0 0 1 -2.86 -14.1 235.68 235.68 0 0 0 4.74 -62.4c12.72 -0.74 26.94 -2 35.66 -12.46 8.26 -10 6 -25.36 2.54 -36.78zm-29.66 -40c0.46 -1.42 2.66 -0.72 2.6 1.14 -0.06 1.42 -3.08 0.46 -2.6 -1.06zm-14.3 -26.08c-0.32 -1.14 -0.94 -2.58 0.7 -1a25.56 25.56 0 0 1 5.46 10l-3.76 0.46c-0.62 -3.18 -1.54 -6.36 -2.4 -9.46zM153.62 180c0 -0.68 0.38 -1.04 1.02 -0.76 1.18 0.6 5.32 5.02 7.02 2.36 2 -3.08 -4.34 -12.42 -4.66 -14.96 -0.18 -1.36 0.94 -0.7 1.46 -0.14a27.32 27.32 0 0 1 5.24 8.76c-1.32 0.4 -2.26 1.34 -1.36 1.22a29.88 29.88 0 0 1 6 -0.9c3.78 0 1.88 -0.98 0.32 -0.96 0 -2.98 -3.58 -14.98 0.88 -7.78 2.12 3.44 2.3 6.72 3.08 8.28a79.6 79.6 0 0 1 3.22 12 17.34 17.34 0 0 1 -13.42 4.38c-2.9 -2.84 -8.26 -7.5 -8.8 -11.5zM76.6 142c6.56 -2.26 11 0 18.18 -6 5.64 -4.68 7.58 -10.54 12.22 -14.74s11.74 -5.06 12.8 2.74a20.3 20.3 0 0 1 -2.18 11.3 29.3 29.3 0 0 1 -6 5.88c-11.32 9 -16.58 6.24 -26.58 9.42 -11.52 -0.34 -13.72 -6.6 -8.44 -8.6zm130.36 98.46c2.36 12.78 1.32 25.32 -10.88 32.84 -8.56 5.28 -18.74 6 -28.52 6.52a105.26 105.26 0 0 0 -14.7 -45.22 0.26 0.26 0 0 0 -0.36 0 0.28 0.28 0 0 0 0 0.32c19.24 32.4 16.84 72.32 9.76 107.84a147.48 147.48 0 0 1 -56 9.84c-22.5 -0.58 -48.92 -6 -51.3 -11.62a96.68 96.68 0 0 1 -0.32 -21.64c15.18 -2.58 29.48 -8 41.24 -18 0.56 -0.48 0.2 -1.22 0.18 -1.74a14.46 14.46 0 0 0 6.72 -0.56c3.6 -1.28 3.26 -3.62 5.06 -4.26 3.54 2.86 0 8.94 2.44 8.76 3.4 -0.24 3.8 -6.7 3.56 -9.06 2.58 2.3 1.38 6 2.44 7.14 1.88 2 3.24 -4.1 2 -8.46 1.34 1.28 1.86 2.62 2.66 2.92 2.12 0.84 3.68 -5.02 -6 -12.18 3.08 -2.58 5.1 -9.86 1.78 -8.62 -1.4 0.52 -2.7 4 -6.34 6 -2.98 -1.04 -9.44 -0.2 -12.52 0.3 0.18 -0.44 0.64 -1.4 0 -1.6 -6.56 -1.9 -21.4 -2.94 -28.62 -3.14A46.7 46.7 0 0 0 76 262a8.66 8.66 0 0 0 0.48 -2.46 0.36 0.36 0 0 0 -0.4 -0.34 0.4 0.4 0 0 0 -0.28 0.16c-0.94 1.76 -1.48 7.32 -7.56 17.52a169.82 169.82 0 0 0 -29.88 2c-0.4 0 -0.26 0.64 0.14 0.58a186.22 186.22 0 0 1 45.38 -0.54C80 286 82.32 300 86 306.88a94 94 0 0 1 -32 11.56c-13.44 2.24 -35.18 4.22 -40.54 -11.66 -11.54 -34.22 23 -74.16 50.22 -90.4a92.36 92.36 0 0 1 19.84 -8.86c2.8 7 18.26 14.92 24.26 14A5.28 5.28 0 0 1 110 214.2c-6.86 -2.44 -9.02 -5.56 -14.56 -10 0.86 -4.92 0.32 -14.42 -1.36 -18.3s-7.16 -8.42 -6.38 -12.56a2 2 0 0 1 3.06 -1.6c1.36 0.74 2.2 2.94 4 2.74 4 -0.44 1.74 -8.42 1.64 -11.62 0 -4 2.56 -5.08 6 -5.48 6.5 -0.78 12.6 1.7 23.3 0.2a119.16 119.16 0 0 1 3.64 19.28c2.3 24.74 -12.92 20.66 -13 22.76a21.44 21.44 0 0 0 0.4 5 22.82 22.82 0 0 1 -6 9.28 6.84 6.84 0 0 1 7.6 4.94c3.36 -1.16 8.12 -7.32 8.3 -12.5a168.78 168.78 0 0 1 35.18 15.24 132.14 132.14 0 0 0 4 24.74 0.32 0.32 0 0 0 0.44 0.14 0.28 0.28 0 0 0 0.18 -0.28c-0.58 -3.48 -1.3 -6.92 -1.88 -10.4a175.18 175.18 0 0 1 -2.2 -33.46 18 18 0 0 0 20 -8.36c11.64 13.28 21.38 29.02 24.6 46.56zm-116.58 58.82c1.18 1.04 -1.68 3.54 -2.4 2 -0.5 -1.02 1.36 -2.92 2.4 -2zm24.72 -14c2.62 2 7.42 6 6.16 10 -0.92 -0.6 -1.28 -1.66 -2.14 -2.36l-1.48 -1.24a12.24 12.24 0 0 0 -3.24 -4.48c-0.24 -0.22 -0.62 0 -0.4 0.32 5.54 5.4 3.5 14.2 2.76 13.48 0 0 -0.58 -7.62 -3.18 -7.44 -0.76 -4.62 -2 -4.34 -1.8 -3.68a27.3 27.3 0 0 1 1.06 4.96c0.16 2.22 0 5.68 -1.86 7.32 -1.24 1.1 -1 0.38 -0.76 -2 0.14 -2 0 -6 -2.58 -6s-1.2 4 -8.2 4.78a18.44 18.44 0 0 1 -3.48 0.16c-0.24 -5.74 -0.66 -11.18 1.54 -16.66 9.06 -0.44 10.82 -2.44 17.6 2.78zm-3.88 -3.56c2.66 -0.98 4.48 -5.14 5.66 -5.56s0.12 4.62 -2.9 7.2zm150.5 -99.02a1.56 1.56 0 0 0 -2.2 0.34 2.2 2.2 0 0 0 -0.18 0.28c-0.2 0.42 0 0.6 0.2 0.38a1.54 1.54 0 0 1 2 -0.38c0.82 0.38 0.84 -0.06 0.18 -0.62zm-0.96 -8.28c0 -1.7 -3.32 0 -3.86 2.54 0 0.36 0.5 0.46 0.62 0.14a3.08 3.08 0 0 1 1.42 -1.72c0.8 -0.46 1.8 -0.36 1.82 -0.96zm-41.86 -56.78c0 9.28 -1.4 5.78 4.18 8.74a13.48 13.48 0 0 1 -4 6.5c-0.26 0.22 0 0.66 0.36 0.46a12 12 0 0 0 4.56 -6.42c1.2 0.72 4.84 3.6 4.62 2 -0.16 -1.04 -3.36 -2.62 -4.28 -3.14a29.22 29.22 0 0 0 0.5 -9.14c2 -0.66 3.16 -1.72 2 -1.84a7.68 7.68 0 0 0 -2 0.72c0 -0.76 0.12 -2.12 -0.76 -2.42s-0.44 2.14 -0.38 2.76l-3.7 0.74c0 -1.88 -0.2 -3.74 -0.4 -5.62a0.3 0.3 0 0 0 -0.6 0v5.66l-2.58 0.36c-0.38 0 -0.34 0.7 0 0.7l2.54 -0.14zm1.06 0a24 24 0 0 0 3.76 -0.54 28.22 28.22 0 0 1 -0.38 8.3A10.32 10.32 0 0 0 220 124zM268 190.86c-2.92 0.36 -2.6 0 -2.7 -3.4v-6.32a0.26 0.26 0 1 0 -0.52 0c-0.14 1.08 -0.94 9.6 0.18 10.54a4.58 4.58 0 0 0 3.14 0 0.44 0.44 0 1 0 -0.16 -0.86zm-53.28 -61.24c-1.68 -1.2 -4.74 -6.38 -5.72 -6.48 -2.18 -0.24 3.28 6 5.4 7.04 0.32 0.2 0.62 -0.36 0.32 -0.56z" stroke-width="2"></path><path d="M240.36 187.06a114 114 0 0 0 11.44 4c0.42 0.22 1.2 -0.24 -0.14 -1 -13.58 -8 -20.96 -21.22 -22.4 -36.64 44.8 -9.24 41.54 -70.46 -14.82 -62.4a33.56 33.56 0 0 0 4.76 -30.5c-5.74 -15.86 -22 -18.48 -36.88 -18.5C157.42 42 122.7 50.7 110.76 75.2a32.88 32.88 0 0 0 -0.48 28.8c4.32 8.58 12.94 13.82 22 16a59.18 59.18 0 0 0 25.74 -0.66c0.44 14.26 0.32 31.06 -10.92 41.42 -4.78 4.42 -9.7 5.08 -9.4 5.68C136 168 150 167.46 160.2 156c9.78 -11 12.88 -26.18 14.74 -40.34l2.66 -0.84c-6.52 14.64 -0.56 29.3 14 35.84 7.7 3.48 16.28 4 24.62 4 1.44 13.34 12.36 26.5 24.14 32.4zm-66 -72.5c-0.3 0 -0.4 0 -0.48 0.54 -1.4 9.44 -2.78 18.94 -6.64 27.78 -5.26 12 -14.4 21.54 -27.64 23.3 17.1 -5.62 20.26 -27.8 19.68 -43.4 0 -2.3 0 -4.74 -0.78 -4.5 -14.76 3.2 -32.7 3.16 -43.6 -9.08a29.64 29.64 0 0 1 -5.6 -27.46c8.5 -30.96 54 -40.76 81.44 -38.2 9.54 0.9 19.24 3.8 24.74 12.24a30 30 0 0 1 2.8 25.16 37.72 37.72 0 0 1 -5.46 10.44c-0.68 0.4 -23.72 2.5 -34 20.9 -0.82 1.52 -0.52 1.1 -4.4 2.28zm22.8 37.12c-26.82 -7.7 -27.62 -36.58 -6 -51.2A56.64 56.64 0 0 1 214.28 92c55.32 -8.28 58.54 50.98 14.84 60.44 -0.72 0 -0.68 1.1 -0.68 1.24 0 14 9.08 28.32 20.52 35.72a46.18 46.18 0 0 1 -32 -35.78 71.62 71.62 0 0 1 -19.8 -1.94zM278 192.56c-0.48 2.24 -3.26 2.64 -5.14 2.84 -0.34 0 -0.32 0.6 0 0.58 8.62 -0.18 5.6 -5.84 5.14 -3.42z" stroke-width="2"></path><path d="M300.54 199.82A34.6 34.6 0 0 1 295.6 188c6.46 -2.58 10.46 -21.74 10 -28.48 -0.42 -5.86 -2 -10.5 -8.46 -10.86a7.78 7.78 0 0 0 -4.88 0.98c-4.46 -10.48 -19.12 -9.24 -28.32 -7.24 -19.9 4.32 -19.12 22.94 -8.36 25.24a72.12 72.12 0 0 0 0.38 15.54c0.92 8.7 3.14 18.58 11.4 23.2 -20.9 8.62 -36.96 28.24 -46 48.5 -5.24 11.82 -9.32 25.58 -4.82 38.32 5.8 16.38 21.66 21.06 37.06 15.54a91.62 91.62 0 0 0 2.74 27.8 66 66 0 0 0 -3.5 17.74 0.3 0.3 0 0 0 0.22 0.24 0.28 0.28 0 0 0 0.36 -0.2 96 96 0 0 1 3.64 -16.96c27.68 13.2 85.88 9.02 112.74 -3.24a112.96 112.96 0 0 1 4.9 17.86 0.3 0.3 0 0 0 0.28 0.22 0.32 0.32 0 0 0 0.32 -0.32c-0.44 -2.98 -3.34 -17.12 -4.94 -18.94a174.4 174.4 0 0 0 -1.4 -24.82c11.86 -3.42 19.32 -15.2 20.66 -27.08 5.3 -47.04 -47.26 -79.92 -89.08 -81.22zm-0.6 0.96a28.24 28.24 0 0 1 -3.3 5.68c-6 7.34 -15.86 8.58 -22.52 1.78 8.84 0.12 18 -6.3 22.6 -13.42a53.58 53.58 0 0 0 3.28 5.96zm-38.34 -1.26c-4.74 -7.34 -6 -23.14 -5.38 -31.74 4 0.56 9.04 -1.66 12.4 -3.68 4 -2.46 8.34 -7.48 12.84 -7.16s2.98 3.88 2.56 6.38c-0.5 2.98 -0.68 11.22 1.88 13.02s4.38 -3 6.86 -2.4a3.82 3.82 0 0 1 2.5 3.74c0.12 4 -2.68 7.06 1.02 16a31.34 31.34 0 0 1 -9.9 9.64c-9.58 5.82 -18.84 5.36 -24.78 -3.8zm107.76 133.66c-26.36 12.3 -86.4 15.84 -112 3.46a108 108 0 0 1 -2.94 -28.22c7.46 -2.84 22 -11.5 24.2 -19.88a10 10 0 0 0 4.5 -5.7 23.18 23.18 0 0 0 6.68 2.88c0 0.46 0.3 1.58 0.66 1.86 18.92 14.6 53.62 26.88 77.58 20.76 0.5 8.36 1.32 16.46 1.32 24.84zm-95.82 -64.24c-0.16 -1.66 -2.7 -10 -0.5 -9.82 0.48 3.78 3.3 9.6 4.7 13.08s2.48 7.62 4.88 10.12c-0.36 1 -4.3 8 -8.46 4.76s-5.38 -9.54 -3.74 -14.54c1.04 0.14 2.8 -0.42 3.12 -1.54a5.72 5.72 0 0 0 0 -2.06zm5.08 -12.6 -1.8 -1.84a0.82 0.82 0 0 1 0 -0.32 0.96 0.96 0 0 1 1.26 -0.52 4.18 4.18 0 0 0 0.54 2.68zm2.14 4c0.86 1.2 1.6 2.48 2.44 3.68 0.28 0.4 2.72 0.94 -3.36 -6.28 -0.24 -0.66 -1.54 -3.6 -0.76 -4 1.24 0 2 1.54 2.72 2.4 1.6 2.5 3.22 5.02 4.84 7.5 0.8 1.68 5.56 3.14 7.86 4.96a20.9 20.9 0 0 0 -4.86 16.24c-2.4 -1.08 -4.84 -1.2 -6.64 -3.38s-9.34 -20.68 -9.12 -22.94c0.18 -1.86 6.34 7.84 6.6 8.28s2.52 0.82 -3.4 -6.6c0.02 -0.32 -5.36 -12.2 3.68 0.1zm9.68 4.7c-1.02 -0.5 -2 -1.02 -3.02 -1.54a6 6 0 0 1 0.68 -4.44c1.72 -3.38 0.88 2 1.8 4.72a7.04 7.04 0 0 0 0.54 1.22zm-14.78 -6.6c-0.54 -0.6 -1.48 -1.64 -2.32 -0.92 -0.12 -2.12 0.94 -2.46 1.34 -2.18a10.32 10.32 0 0 0 0.98 3.06zm112.92 22.26c-1.3 11.88 -8.3 23.22 -20.3 26.54 -23.74 6.54 -58.62 -6 -77.6 -20.74a21.28 21.28 0 0 1 5.14 -18.12c1.68 -1.76 28 -7.6 31.68 -8.2a154.14 154.14 0 0 1 22.92 -1.76 0.32 0.32 0 0 0 0.2 -0.22 0.24 0.24 0 0 0 -0.2 -0.32 90.58 90.58 0 0 0 -22.64 1.32c-0.56 -1.42 -6.2 -5.56 -7.7 -12 0 -0.36 -0.58 -0.18 -0.5 0.16a25.16 25.16 0 0 0 7.04 12c-3.9 0.64 -29.54 6.14 -31.52 8.34 -2.36 -2 -2.74 -0.96 -3.84 -3.08 -1.82 -3.5 -0.14 -8.3 -2.64 -7.56 -1.34 0.4 -2.1 3.44 -2 4.72 -1.26 -2 -5.5 -10 -8 -8.86 -1.24 -0.62 -2 0.12 -2.38 1.2a0.98 0.98 0 0 0 -1.32 0.46c-1.04 -0.8 -2.56 0.72 -2.16 3.7 -3.18 0.38 0 7.88 0.12 11.62 0 2 -0.94 1.28 -2.48 2 -0.22 -0.94 -13.02 -2.1 -14.62 -2.24a125.38 125.38 0 0 1 1.8 -24.46c0 -0.34 -0.48 -0.38 -0.54 0a107.88 107.88 0 0 0 -2.22 24.44 98.28 98.28 0 0 0 -11.12 -0.22 0.3 0.3 0 0 0 0 0.6 180 180 0 0 1 26.16 2.64c-3.58 7.74 2.92 17.44 7.76 16.48 -2.56 7.44 -16.28 15.74 -23.62 18.5 -13.58 5.12 -28.48 2.26 -35.16 -11.86 -5.72 -12 -2.44 -25.86 2.4 -37.62 9.32 -22.64 24.8 -40.74 47.06 -51.34a14 14 0 0 0 5.38 1.38c-0.8 1.04 4.42 5.04 9.48 5.52 -1.38 5.54 -0.98 20.2 -0.5 25.74a0.3 0.3 0 0 0 0.58 0 166.54 166.54 0 0 1 0.82 -25.66c11.46 0.36 17.48 -12.16 16.94 -13.08 40.86 2.64 92.72 32.68 87.58 79.94z" stroke-width="2"></path><path d="M271.22 173.18a3.52 3.52 0 0 1 4 1.48c0.18 0.28 0.64 0 0.5 -0.28 -1.44 -2.9 -5.7 -3.54 -5.26 -1.54 0.04 0.42 0.32 0.5 0.76 0.34zm2.34 9.04c1 0.3 0.58 -0.4 0 -0.7a2.3 2.3 0 0 0 -2.58 0.32c-0.28 0.32 -0.48 1.14 0.54 0.64a2.26 2.26 0 0 1 2.04 -0.26zM211.12 116a7.26 7.26 0 0 1 -1.78 4.24c-0.26 0.28 0.18 0.74 0.46 0.48 2.58 -2.36 3.08 -7.3 1.54 -6 -2 -0.14 -8.46 1.16 -10.94 0.92 1 -4.86 -0.72 -3.66 -0.78 -3.08a19.38 19.38 0 0 1 -3.12 9.58c-0.58 0.8 2 1.28 3.68 -5.66 3.4 0.82 8.24 -1.02 10.94 -0.48zM150.2 75.58a0.54 0.54 0 0 0 -0.72 -0.2 0.56 0.56 0 0 0 -0.26 0.76c2.84 5.28 5.78 10.48 8.7 15.72A191.58 191.58 0 0 0 142 78.14c-0.48 -0.38 -0.96 0.32 -0.76 0.78 2.44 5.88 6.22 15.3 8.92 20.68 0.16 0.32 0.7 0.12 0.58 -0.22 -2 -5.7 -5.24 -13.18 -7.64 -18.92a190.26 190.26 0 0 1 16.74 14.86 0.58 0.58 0 0 0 0.64 0.1 0.56 0.56 0 0 0 0.26 -0.76C157.2 88.32 153.8 82 150.2 75.58z" stroke-width="2"></path><path d="M206 124.96c-0.36 -2 -0.76 -4 -1.22 -5.9a0.3 0.3 0 0 0 -0.6 0 84.98 84.98 0 0 0 1.54 10.28c0.54 2.62 1.14 6.92 -2.84 6.14 -1.14 -0.2 -0.88 1.78 1.54 1.28 4.9 -1.02 2.12 -8.76 1.52 -12zM127.4 92.22a9.04 9.04 0 0 0 -3.2 0.16c2.96 -3.26 1.76 -7.24 -2.84 -6.66 -0.66 0 -4.24 0.94 -4 2l3.84 8.7A68.74 68.74 0 0 0 128 109.2c0.9 1.14 5.02 -3.4 5.5 -4.16a8.42 8.42 0 0 0 1.16 -3.22 8.52 8.52 0 0 0 -7.26 -9.6zm-6.16 1.34 -3.14 -5.8c3.56 -1.74 6 -1.2 6.56 0.34 0.78 2.32 -2.4 4.76 -3.42 5.46zM132.74 104a12.24 12.24 0 0 1 -4.14 4 134 134 0 0 1 -6.96 -13.74c7.92 -3.86 14.48 3.46 11.1 9.74zm5.44 -22c-6.16 -4.36 -8.32 5.64 -0.94 18.26 5.04 8.64 8.68 2 7.48 -5 -0.88 -5.12 -3.54 -11.06 -6.54 -13.26zM138 99.82c-4 -6.86 -6.5 -18.88 -1.76 -17.52 4 1.16 6.8 9.66 7.36 13.36 1.18 7.74 -2.14 9.9 -5.6 4.16zm34.34 -30.84c-4.44 -3.78 -7.42 1 -5.04 10a28.4 28.4 0 0 0 3.78 8.42c3.2 4.24 6.28 1.7 6.36 -2.9 0.1 -5.46 -0.6 -11.72 -5.1 -15.52zm4 15.4c-0.16 7.18 -4.34 2.84 -4.34 2.64 -2.66 -3.58 -5.18 -11.32 -4.32 -16 0.7 -3.84 4 -2 6 1.14a21.12 21.12 0 0 1 2.62 12.22zm-11.58 1.1A96.72 96.72 0 0 0 158 72.94c0.44 -0.12 4.24 -0.98 3.08 -1.76 -0.76 -0.5 -6.96 2 -7.68 2.5 -0.36 0.2 0 0.66 0.28 0.58 1.24 -0.28 2.42 -0.7 3.62 -1.08 2 4.6 10.44 18 9.1 22.84 -0.48 1.76 -2.76 1.88 -4.26 2 -0.76 0 -0.82 1.14 0 1.14 9.14 -0.1 5.02 -8.46 2.66 -13.58zm14.08 -8.74a26.84 26.84 0 0 0 4.44 8.56c2.62 2.62 5.46 1.38 6.3 -2s-0.6 -6.46 -1.82 -9.42 -2.5 -5.54 -3.48 -8.42c-0.44 -1.28 -1.6 -1.4 -0.84 0.14 0.12 0.26 2.72 7.4 3.18 8.54a16.52 16.52 0 0 1 2 8.24c-0.66 4.48 -4.14 4.66 -7 -2a96 96 0 0 1 -5.06 -13.76 0.32 0.32 0 0 0 -0.38 -0.24 0.3 0.3 0 0 0 -0.24 0.36 47.12 47.12 0 0 0 2.9 10zm21.36 47.8a29.54 29.54 0 0 1 -2 7.6 0.28 0.28 0 0 0 0.14 0.36 0.3 0.3 0 0 0 0.38 -0.14 18 18 0 0 0 2.56 -7.82 0.56 0.56 0 1 0 -1.08 0zm26 -13.98c3.02 0 7.48 -0.96 10.86 -1.24 -0.66 0.78 -4.24 5.18 -3.64 6.16 -0.34 0.38 0.1 2.4 0.18 3.02a30.44 30.44 0 0 0 -4.98 1.14c-0.36 0.14 -0.38 0.76 0 0.72a39.84 39.84 0 0 0 5.06 -0.84l1.08 8.18c0.46 3.64 -1.72 2.92 -4.16 3.14 -0.5 0 -0.64 0.86 -0.12 1a5.06 5.06 0 0 0 4.54 -0.8c1.36 -1.24 0.9 -3.08 0.68 -4.72 -0.32 -2.3 -0.66 -4.66 -1 -6.98l5.72 -1.02a0.5 0.5 0 0 0 0.18 -0.68 0.52 0.52 0 0 0 -0.3 -0.24 45.24 45.24 0 0 0 -5.76 0.9c-0.34 -1.7 -0.78 -2.16 0 -3.38 1.06 -1.76 4.44 -6 3.74 -6.54 -1.08 -0.7 -10.34 0.72 -12.2 1.54 -0.3 0.08 -0.26 0.64 0.12 0.64zm-29.62 22.2c-0.62 -3.12 -1.22 -6.26 -1.88 -9.38 -1.48 -6.84 -1.28 -1.74 0 -7.42 0.82 -3.76 -0.2 -4 -0.6 -3.26a22.42 22.42 0 0 1 -3.36 9.66c-2.32 3.48 0.6 1.44 2.3 -2 0.66 4 2.72 12 2.64 15.52 0 2.66 1.74 2.2 0.9 -3.2z" stroke-width="2"></path></g></svg>